<?xml version="1.0" encoding="UTF-8"?>
<svg version="1.1" xmlns="http://www.w3.org/2000/svg" width="512" height="512">
<path d="M0 0 C7.49360995 3.78828252 12.53791579 12.54765969 17.53808594 19.10302734 C19.93442812 22.21250944 22.40883452 25.25834236 24.875 28.3125 C30.32059794 35.08888923 35.61369547 41.97543934 40.87109375 48.8984375 C42.88336179 51.5462567 44.91506648 54.17631561 46.97265625 56.7890625 C47.43269043 57.37606934 47.89272461 57.96307617 48.36669922 58.56787109 C49.5986534 60.13684786 50.83622133 61.70141223 52.07421875 63.265625 C55.58607989 68.25204042 56.44238545 71.83117537 55.609375 77.78125 C54.45423725 81.98713617 51.92448978 84.65786174 48.34765625 87.15234375 C44.85727777 88.41259688 41.40805968 88.20901904 37.75 88.125 C37.00492187 88.11597656 36.25984375 88.10695313 35.4921875 88.09765625 C33.66131941 88.07418358 31.83061762 88.03831525 30 88 C30.02618408 89.18553467 30.05236816 90.37106934 30.0793457 91.5925293 C30.16999021 95.99988866 30.22730088 100.407166 30.2746582 104.81518555 C30.29976999 106.72125107 30.33386645 108.62722059 30.37719727 110.53295898 C30.43799744 113.27611998 30.46624245 116.01800586 30.48828125 118.76171875 C30.51408768 119.61086349 30.5398941 120.46000824 30.56648254 121.33488464 C30.56855454 125.72654602 30.40394585 127.46944489 27.65698242 131.07739258 C25 133 25 133 22 133 C21.82001623 139.78917779 21.82001623 139.78917779 24.30859375 145.90234375 C25.48885098 147.01718257 26.6973312 148.10256205 27.92578125 149.1640625 C47.93765127 166.87701713 61.2619665 194.65491625 71 219 C71.33 211.74 71.66 204.48 72 197 C70.35 196.67 68.7 196.34 67 196 C63.12340649 191.74044189 63.61053092 186.97143383 63.70703125 181.54296875 C63.71127609 180.64000565 63.71552094 179.73704254 63.71989441 178.80671692 C63.73663689 175.9333365 63.77428084 173.06066709 63.8125 170.1875 C63.82755257 168.2350362 63.84123997 166.28256136 63.85351562 164.33007812 C63.88652592 159.55311303 63.93827765 154.77667691 64 150 C62.96649414 150.01957764 61.93298828 150.03915527 60.86816406 150.05932617 C59.5006562 150.07515924 58.13314276 150.09051499 56.765625 150.10546875 C56.08580566 150.11960815 55.40598633 150.13374756 54.70556641 150.14831543 C49.12953081 150.19404841 46.24548893 149.57007024 42 146 C38.36535722 142.13086414 38.61179162 137.8726341 38.50390625 132.81640625 C39.5616193 126.81159436 44.34316722 122.17054145 48.0625 117.5 C49.04302852 116.26046395 50.02349554 115.02087924 51.00390625 113.78125 C51.50164551 113.15347656 51.99938477 112.52570313 52.51220703 111.87890625 C54.85028666 108.92618868 57.17463994 105.96273661 59.5 103 C60.41924236 101.83070678 61.33851324 100.66143598 62.2578125 99.4921875 C64.06874175 97.18771898 65.87574563 94.88025413 67.6796875 92.5703125 C70.44099997 89.03723574 73.21566074 85.5149557 76 82 C76.82564453 80.95682617 76.82564453 80.95682617 77.66796875 79.89257812 C79.39705963 77.71470074 81.13477312 75.54398559 82.875 73.375 C83.41044434 72.69969238 83.94588867 72.02438477 84.49755859 71.32861328 C92.25852374 61.70832629 92.25852374 61.70832629 98.3125 61 C103.54223882 60.71568142 106.95484147 61.61557517 111 65 C114.42112845 68.87031479 117.51077765 72.93482113 120.57666016 77.08886719 C122.82430875 80.1068077 125.1640958 83.05021767 127.5 86 C128.4171559 87.1662821 129.33382169 88.33294979 130.25 89.5 C130.70375 90.0775 131.1575 90.655 131.625 91.25 C133.6875 93.875 133.6875 93.875 135.75 96.5 C136.20415283 97.07790283 136.65830566 97.65580566 137.1262207 98.2512207 C138.03925008 99.41347935 138.95185054 100.57607506 139.86401367 101.73901367 C142.20785842 104.72608614 144.55974197 107.70624872 146.92578125 110.67578125 C162.13344865 129.79377306 162.13344865 129.79377306 162 137 C160.38225583 142.21273121 158.15083425 145.47179089 154 149 C150.38132441 150.2062252 147.07493749 150.10816918 143.3125 150.0625 C142.61060547 150.05798828 141.90871094 150.05347656 141.18554688 150.04882812 C139.45699462 150.03706927 137.72848635 150.01913454 136 150 C136.00460896 150.63445384 136.00921793 151.26890768 136.01396656 151.92258739 C136.12440624 167.36291047 136.20713703 182.80309611 136.25906086 198.24371624 C136.28483856 205.71071752 136.31998029 213.17745509 136.37719727 220.64428711 C136.42704614 227.15268356 136.45929419 233.66088903 136.47044247 240.16947109 C136.47695892 243.61557299 136.49226388 247.06112856 136.52865028 250.50705528 C136.56894826 254.3546609 136.56994846 258.20173288 136.56762695 262.04956055 C136.58560333 263.19107574 136.60357971 264.33259094 136.62210083 265.50869751 C136.57170947 273.20838634 136.57170947 273.20838634 133.68327332 277.20783997 C130.11770348 279.58928643 128.20697529 279.75124559 124 279 C121.0625 276.625 121.0625 276.625 119 274 C119 273.34 119 272.68 119 272 C107.12 272 95.24 272 83 272 C83.165 274.31 83.33 276.62 83.5 279 C84.01065595 287.54013664 84.17170458 296.0887424 84.23217773 304.64233398 C84.24402626 306.08509488 84.26108714 307.52782271 84.28344727 308.97045898 C84.31353076 311.02869123 84.3233808 313.08610312 84.328125 315.14453125 C84.3374707 316.34440674 84.34681641 317.54428223 84.35644531 318.78051758 C83.96131377 322.34942141 83.18320427 324.17325563 81 327 C79.33935547 328.21386719 79.33935547 328.21386719 77.4921875 329.046875 C76.78803711 329.36720703 76.08388672 329.68753906 75.35839844 330.01757812 C70.97616766 331.84305397 66.56842938 333.57907252 62.125 335.25 C61.17625 335.61351562 60.2275 335.97703125 59.25 336.3515625 C52.26051457 339 52.26051457 339 50 339 C49.85304688 339.6084375 49.70609375 340.216875 49.5546875 340.84375 C46.33653127 353.42045251 41.8467172 365.3421057 35.36450195 376.59643555 C33.77028425 379.53283128 32.89889993 381.39854023 33.4609375 384.7421875 C33.96882813 385.81726563 34.47671875 386.89234375 35 388 C35.79601779 389.80131235 36.59007547 391.60349142 37.3828125 393.40625 C38.75852632 396.47269617 40.14116562 399.53522591 41.54296875 402.58984375 C42.20619141 404.07677734 42.20619141 404.07677734 42.8828125 405.59375 C43.28902832 406.48771484 43.69524414 407.38167969 44.11376953 408.30273438 C45.21315705 411.64874906 45.63153195 413.49545767 45 417 C42.96112566 419.95409456 40.51231556 422.44596695 38 425 C37.37610382 425.66152069 36.75220764 426.32304138 36.10940552 427.00460815 C31.93311558 431.42422014 27.65637861 435.74746942 23.38500977 440.07495117 C21.83126843 441.65547834 20.28473738 443.24312473 18.74536133 444.83764648 C16.50450941 447.15753408 14.24155885 449.45367318 11.97265625 451.74609375 C11.29219742 452.45954453 10.61173859 453.1729953 9.91065979 453.9080658 C6.79717403 457.00877114 4.326373 459.34581699 -0.09350586 460.11572266 C-4.29752844 459.99118627 -6.72759118 459.25958748 -10.4765625 457.40234375 C-11.641875 456.84869141 -12.8071875 456.29503906 -14.0078125 455.72460938 C-15.8245358 454.831264 -17.63780608 453.93114318 -19.45117188 453.03100586 C-21.22275502 452.159755 -23.00582307 451.31198133 -24.7890625 450.46484375 C-25.83787598 449.945271 -26.88668945 449.42569824 -27.96728516 448.89038086 C-32.94432921 447.42916047 -36.65552778 449.69870212 -41.07421875 451.953125 C-42.18506836 452.50383667 -42.18506836 452.50383667 -43.31835938 453.06567383 C-44.94336918 453.87801127 -46.5656377 454.69584884 -48.18554688 455.51831055 C-52.48271214 457.61843197 -56.33779563 459.21456326 -61.08203125 459.94140625 C-68.57983651 461.15909285 -68.57983651 461.15909285 -75 465 C-79.78242195 472.60393615 -82.3696911 481.37896418 -84.83764648 489.95727539 C-86.14208283 493.37193412 -87.43832226 495.39082324 -90 498 C-92.80786133 498.63491821 -92.80786133 498.63491821 -96.08203125 498.64697266 C-97.31010498 498.66273346 -98.53817871 498.67849426 -99.8034668 498.69473267 C-101.13982033 498.68578281 -102.47616568 498.6755278 -103.8125 498.6640625 C-105.18726022 498.66743221 -106.56201754 498.67228613 -107.93676758 498.67855835 C-110.81523051 498.68592268 -113.69291659 498.67524028 -116.57128906 498.65185547 C-120.25726652 498.62336561 -123.9414239 498.63977227 -127.62733459 498.66971779 C-130.46534896 498.68780405 -133.30293323 498.68202717 -136.14096069 498.66907883 C-137.4997072 498.66574837 -138.85849302 498.6698194 -140.2171936 498.68147659 C-142.11744418 498.69420299 -144.01783204 498.67135855 -145.91796875 498.64697266 C-147.53868286 498.64100571 -147.53868286 498.64100571 -149.19213867 498.63491821 C-152.95943437 497.78305113 -153.95956811 496.19696086 -156 493 C-157.13061523 489.97314453 -157.13061523 489.97314453 -158.05859375 486.6328125 C-161.57899863 473.66734026 -161.57899863 473.66734026 -169.22607422 463.16992188 C-174.27301493 460.63883388 -179.65254969 459.7565926 -185.16113281 458.72265625 C-191.12036952 457.20568509 -196.48114322 453.93780005 -201.80810547 450.93115234 C-206.03176745 448.72659045 -208.80723517 447.46638796 -213.48046875 448.9296875 C-215.00491719 449.57920606 -216.51153463 450.27179108 -218 451 C-219.21308838 451.5566333 -219.21308838 451.5566333 -220.45068359 452.12451172 C-223.86740578 453.71280794 -227.25841684 455.34703982 -230.62695312 457.03515625 C-231.46291016 457.43089844 -232.29886719 457.82664062 -233.16015625 458.234375 C-233.89886963 458.59756836 -234.63758301 458.96076172 -235.39868164 459.33496094 C-239.23974736 460.31694714 -242.3109805 460.38236797 -246 459 C-249.52869671 456.42627403 -252.47404433 453.36475434 -255.49609375 450.22265625 C-256.37024429 449.34097275 -257.24439484 448.45928925 -258.14503479 447.55088806 C-260.454247 445.21470665 -262.74718502 442.86397509 -265.0335083 440.50543213 C-267.36941988 438.10473285 -269.72818331 435.72688601 -272.08398438 433.34570312 C-275.51234757 429.86704525 -278.93775152 426.38576686 -282.34155273 422.88305664 C-283.02579819 422.17991837 -283.71004364 421.47678009 -284.4150238 420.75233459 C-286.48747053 418.46105723 -286.96826586 417.37544233 -287.23095703 414.26757812 C-286.96496986 410.50439383 -285.94916975 408.10538615 -284.3046875 404.71875 C-283.75425781 403.54699219 -283.20382812 402.37523437 -282.63671875 401.16796875 C-281.75683133 399.3280253 -280.87082763 397.49145356 -279.97607422 395.65869141 C-279.11036085 393.87432022 -278.26969031 392.07786778 -277.4296875 390.28125 C-276.91647949 389.21970703 -276.40327148 388.15816406 -275.87451172 387.06445312 C-274.4473894 382.06354879 -276.69059636 378.36035958 -278.953125 373.92578125 C-279.32026611 373.18521484 -279.68740723 372.44464844 -280.06567383 371.68164062 C-280.87801127 370.05663082 -281.69584884 368.4343623 -282.51831055 366.81445312 C-284.61843197 362.51728786 -286.21456326 358.66220437 -286.94140625 353.91796875 C-288.15909285 346.42016349 -288.15909285 346.42016349 -292 340 C-299.60393615 335.21757805 -308.37896418 332.6303089 -316.95727539 330.16235352 C-320.27741713 328.89402367 -322.42970919 327.44202294 -325 325 C-326.13651265 321.59046204 -326.1294448 318.96978056 -326.1328125 315.375 C-326.13506332 314.39333862 -326.13506332 314.39333862 -326.13735962 313.3918457 C-326.13971823 311.26116849 -326.13345122 309.13066045 -326.125 307 C-326.12278442 306.27248535 -326.12056885 305.5449707 -326.11828613 304.79541016 C-325.97363962 264.44570867 -319.30087712 226.84859732 -300 191 C-299.38640625 189.83339844 -298.7728125 188.66679687 -298.140625 187.46484375 C-285.69519433 164.65679208 -267.41432377 143.9276592 -247 128 C-246.0409375 127.2471875 -245.081875 126.494375 -244.09375 125.71875 C-237.02569145 120.28750501 -229.72985781 115.43433825 -222 111 C-221.33178223 110.61199219 -220.66356445 110.22398438 -219.97509766 109.82421875 C-174.04889159 83.45510522 -117.98045549 77.22748435 -67 91 C-56.05654803 94.29814289 -45.37933629 98.21405203 -35 103 C-34.58219121 100.62694422 -34.58219121 100.62694422 -35 98 C-37.37612865 96.39092892 -37.37612865 96.39092892 -40 95 C-41.73523928 92.35582586 -42 91.21534057 -42 88 C-43.00160156 88.04640625 -44.00320313 88.0928125 -45.03515625 88.140625 C-58.68561253 88.58969827 -58.68561253 88.58969827 -64 84 C-67.3850198 79.30464996 -67.84176432 74.60516006 -67 69 C-64.46854087 62.90148483 -59.94723446 58.2239 -55.703125 53.23046875 C-52.63769832 49.60260864 -49.76184084 45.83792908 -46.88549805 42.05908203 C-43.2319773 37.27190462 -39.47015727 32.577775 -35.68774414 27.89208984 C-32.91151378 24.43748242 -30.18989812 20.95036814 -27.5234375 17.41015625 C-26.9456958 16.64413086 -26.3679541 15.87810547 -25.77270508 15.08886719 C-24.66017228 13.60803124 -23.55293685 12.12319554 -22.4519043 10.63378906 C-16.16634062 2.26896292 -10.74432042 -1.66873641 0 0 Z " fill="#020101" transform="translate(338,7)"/>
<path d="M0 0 C29.04 0 58.08 0 88 0 C88.99 6.27 89.98 12.54 91 19 C91.96794735 22.34738246 92.84237657 25.23624866 94.1875 28.375 C94.63814819 29.47521484 94.63814819 29.47521484 95.09790039 30.59765625 C106.05450672 56.44025126 126.60798405 75.57623919 152.41113281 86.04101562 C179.75689179 96.17060269 207.27749914 93.4090446 233.40234375 81.44140625 C259.81099771 68.09303207 275.31838026 45.59537625 284.88671875 18.26171875 C286.44744672 12.28714256 287.12671388 6.11300284 288 0 C317.04 0 346.08 0 376 0 C376 4.29 376 8.58 376 13 C375.13197754 13.35304199 374.26395508 13.70608398 373.36962891 14.06982422 C370.15132392 15.38156064 366.93492994 16.69777916 363.71972656 18.01708984 C362.32756325 18.58726023 360.93466184 19.15563184 359.54101562 19.72216797 C357.5383968 20.53662335 355.53851808 21.35750232 353.5390625 22.1796875 C352.33459473 22.67194824 351.13012695 23.16420898 349.88916016 23.67138672 C346.58665046 25.19008351 345.36067529 26.04536077 344.07373047 29.45166016 C343.6002417 30.97992432 343.6002417 30.97992432 343.1171875 32.5390625 C342.75842529 33.66989258 342.39966309 34.80072266 342.0300293 35.96582031 C341.64886963 37.17334961 341.26770996 38.38087891 340.875 39.625 C337.2555107 50.80380927 333.4326121 61.87981974 326.84619141 71.72460938 C324.94161623 74.66678208 324.00689615 76.68507589 323.9296875 80.2109375 C325.75889684 86.68660559 328.72689834 92.64888011 331.58203125 98.7265625 C332.25685547 100.2115625 332.25685547 100.2115625 332.9453125 101.7265625 C333.36312988 102.61939941 333.78094727 103.51223633 334.21142578 104.43212891 C335.18313816 107.59636137 335.19295915 108.90189362 334 112 C332.129342 114.29410312 330.28737161 116.34452182 328.20703125 118.4296875 C327.62338303 119.02427765 327.0397348 119.6188678 326.43840027 120.23147583 C325.20364204 121.4820705 323.96353868 122.72740728 322.71850586 123.96777344 C320.81689266 125.87060453 318.94650641 127.80085182 317.07617188 129.734375 C315.87158723 130.94709866 314.6652631 132.1580975 313.45703125 133.3671875 C312.90054398 133.94725555 312.3440567 134.52732361 311.77070618 135.12496948 C309.12099252 137.71357279 307.71873698 139.00120286 303.93652344 138.99487305 C301.06086288 138.02061991 298.31779175 136.98271684 295.55859375 135.71484375 C294.56279297 135.26689453 293.56699219 134.81894531 292.54101562 134.35742188 C290.46729652 133.40865297 288.39438202 132.45812352 286.32226562 131.50585938 C284.83049805 130.83586914 284.83049805 130.83586914 283.30859375 130.15234375 C282.40939209 129.73976318 281.51019043 129.32718262 280.58374023 128.90209961 C277.81663774 127.93598001 275.90705058 127.70206229 273 128 C270.44434778 129.29801749 268.06156596 130.63465601 265.625 132.125 C256.48294965 137.46963156 247.16037886 141.52554148 236.9765625 144.48828125 C235.6913269 144.86786987 235.6913269 144.86786987 234.38012695 145.25512695 C232.70774459 145.74028799 231.02918808 146.20479705 229.34448242 146.64526367 C225.61345253 147.71602968 223.46458316 148.50194073 220.77734375 151.3828125 C217.91124982 156.60622629 215.90236142 162.33270506 213.75 167.875 C212.1825 171.87625 210.615 175.8775 209 180 C195.14 180 181.28 180 167 180 C163.25 170.5625 163.25 170.5625 162.09472656 167.64672852 C161.07621481 165.09236984 160.03985585 162.54573883 159 160 C158.66419922 159.15421387 158.32839844 158.30842773 157.98242188 157.43701172 C155.72603227 151.68788495 155.72603227 151.68788495 151 148 C148.8745917 147.38303727 146.72361999 146.85203652 144.5625 146.375 C130.807122 143.02302338 117.25718695 137.053423 105.47265625 129.21484375 C102.37061078 127.69077402 100.43988051 127.75429425 97 128 C94.14215975 128.9869191 94.14215975 128.9869191 91.33984375 130.44140625 C90.29892578 130.94220703 89.25800781 131.44300781 88.18554688 131.95898438 C86.01549039 133.03031112 83.84622179 134.10323522 81.67773438 135.17773438 C80.11829102 135.92700195 80.11829102 135.92700195 78.52734375 136.69140625 C77.58624756 137.15748291 76.64515137 137.62355957 75.67553711 138.10375977 C72.43524985 139.18917764 71.18278914 139.25293256 68 138 C65.70589688 136.129342 63.65547818 134.28737161 61.5703125 132.20703125 C60.97572235 131.62338303 60.3811322 131.0397348 59.76852417 130.43840027 C58.5179295 129.20364204 57.27259272 127.96353868 56.03222656 126.71850586 C54.12939547 124.81689266 52.19914818 122.94650641 50.265625 121.07617188 C49.05290134 119.87158723 47.8419025 118.6652631 46.6328125 117.45703125 C46.05274445 116.90054398 45.47267639 116.3440567 44.87503052 115.77070618 C42.28475897 113.1192849 40.99931584 111.71642614 41.00292969 107.93212891 C41.97679951 105.06822671 43.0262315 102.36325423 44.3203125 99.62890625 C44.77277344 98.64212891 45.22523437 97.65535156 45.69140625 96.63867188 C46.64704093 94.58809338 47.6105955 92.5411872 48.58203125 90.49804688 C52.03538927 83.0145649 52.03538927 83.0145649 51 75 C49.45343644 71.9210031 49.45343644 71.9210031 47.4375 68.875 C40.15180947 56.89545188 35.39722869 43.10737754 32.1796875 29.49609375 C28.88460828 22.52405527 19.38775709 20.7176189 12.6875 18.3125 C10.50307827 17.51920332 8.31943801 16.72375026 6.13671875 15.92578125 C5.17467529 15.57942627 4.21263184 15.23307129 3.22143555 14.8762207 C1 14 1 14 0 13 C0 8.71 0 4.42 0 0 Z " fill="#FEE076" transform="translate(29,309)"/>
<path d="M0 0 C2.0558848 0.00314874 4.11030848 -0.02035102 6.16601562 -0.0456543 C15.57875736 -0.09067384 24.16236723 1.11972377 33.32226562 3.31567383 C34.54091309 3.59785767 34.54091309 3.59785767 35.78417969 3.88574219 C52.22165161 7.88959145 67.74994131 15.23801984 81.32226562 25.31567383 C82.52109375 26.18192383 82.52109375 26.18192383 83.74414062 27.06567383 C108.72265355 46.00363134 125.92797772 72.22308437 134.32226562 102.31567383 C134.64839844 103.44102539 134.97453125 104.56637695 135.31054688 105.72583008 C137.68261816 114.79815957 137.74973015 122.58257071 138.32226562 132.31567383 C103.01226562 132.31567383 67.70226562 132.31567383 31.32226562 132.31567383 C33.23530319 126.57656115 35.16865028 121.01595333 37.48242188 115.45239258 C37.93602333 114.35130913 37.93602333 114.35130913 38.39878845 113.22798157 C39.05146334 111.64446874 39.70543634 110.06149043 40.3605957 108.47900391 C41.40450131 105.95546475 42.44312292 103.42980664 43.48046875 100.90356445 C46.99774922 92.34384792 50.53611576 83.79337969 54.10801697 75.25630188 C55.78080143 71.25308563 57.44400829 67.24592729 59.10592651 63.2381897 C59.91331128 61.29827444 60.7252267 59.3602383 61.54177856 57.42416382 C62.68821265 54.70504415 63.81923199 51.97996818 64.94726562 49.25317383 C65.29023178 48.45059647 65.63319794 47.6480191 65.98655701 46.82112122 C67.89232754 42.16359488 68.84535716 38.44197083 68.32226562 33.31567383 C66.15118189 30.72707399 64.70174029 30.38026526 61.38476562 29.81567383 C54.79975786 30.89077714 50.5428258 38.72632556 46.69726562 43.75317383 C45.44496607 45.37710669 44.19235885 47.00080235 42.93945312 48.62426758 C42.01664551 49.822854 42.01664551 49.822854 41.07519531 51.0456543 C38.67708785 54.15117006 36.25225135 57.23508343 33.82226562 60.31567383 C29.6998363 65.55153224 25.59999821 70.80462908 21.50976562 76.06567383 C20.92646484 76.8156665 20.34316406 77.56565918 19.7421875 78.33837891 C16.66648007 82.29460444 13.5952615 86.25423644 10.52929688 90.21801758 C9.90837158 91.01949219 9.28744629 91.8209668 8.64770508 92.64672852 C7.46896302 94.16835729 6.29161542 95.69106779 5.1159668 97.21508789 C-5.26811647 110.61050886 -5.26811647 110.61050886 -10.24023438 113.00317383 C-17.55442102 116.81341176 -21.24268658 120.81141556 -24.67773438 128.31567383 C-25.00773437 129.63567383 -25.33773437 130.95567383 -25.67773438 132.31567383 C-61.31773437 132.31567383 -96.95773438 132.31567383 -133.67773438 132.31567383 C-133.67773438 123.52841367 -132.52911054 115.80098005 -130.67773438 107.31567383 C-130.41089844 106.08333008 -130.1440625 104.85098633 -129.86914062 103.58129883 C-121.66934183 69.61591005 -98.78673975 38.15205575 -69.09423828 19.73461914 C-55.06395825 11.49618839 -40.62206123 5.53248144 -24.67773438 2.31567383 C-23.87368164 2.13383545 -23.06962891 1.95199707 -22.24121094 1.76464844 C-14.84244807 0.21349464 -7.53456507 -0.02401242 0 0 Z " fill="#EAEDEF" transform="translate(214.677734375,160.684326171875)"/>
<path d="M0 0 C1.12535156 0.10054688 1.12535156 0.10054688 2.2734375 0.203125 C8.18064089 1.57689323 11.25556366 5.3913135 14.75 10.0625 C15.72113265 11.32959689 16.69249319 12.59651915 17.6640625 13.86328125 C18.15551758 14.50990723 18.64697266 15.1565332 19.15332031 15.82275391 C21.44504532 18.82389479 23.78594146 21.78571086 26.125 24.75 C27.04193297 25.91645738 27.95859896 27.08312468 28.875 28.25 C29.555625 29.11625 29.555625 29.11625 30.25 30 C31.625 31.75 33 33.5 34.375 35.25 C34.82915283 35.82790283 35.28330566 36.40580566 35.7512207 37.0012207 C36.66425008 38.16347935 37.57685054 39.32607506 38.48901367 40.48901367 C40.83285842 43.47608614 43.18474197 46.45624872 45.55078125 49.42578125 C60.75844865 68.54377306 60.75844865 68.54377306 60.625 75.75 C59.00725583 80.96273121 56.77583425 84.22179089 52.625 87.75 C49.00632441 88.9562252 45.69993749 88.85816918 41.9375 88.8125 C41.23560547 88.80798828 40.53371094 88.80347656 39.81054688 88.79882812 C38.08199462 88.78706927 36.35348635 88.76913454 34.625 88.75 C34.62960896 89.38445384 34.63421793 90.01890768 34.63896656 90.67258739 C34.74940624 106.11291047 34.83213703 121.55309611 34.88406086 136.99371624 C34.90983856 144.46071752 34.94498029 151.92745509 35.00219727 159.39428711 C35.05204614 165.90268356 35.08429419 172.41088903 35.09544247 178.91947109 C35.10195892 182.36557299 35.11726388 185.81112856 35.15365028 189.25705528 C35.19394826 193.1046609 35.19494846 196.95173288 35.19262695 200.79956055 C35.21060333 201.94107574 35.22857971 203.08259094 35.24710083 204.25869751 C35.19670947 211.95838634 35.19670947 211.95838634 32.30827332 215.95783997 C28.74270348 218.33928643 26.83197529 218.50124559 22.625 217.75 C19.6875 215.375 19.6875 215.375 17.625 212.75 C17.625 212.09 17.625 211.43 17.625 210.75 C5.415 210.75 -6.795 210.75 -19.375 210.75 C-20.035 206.79 -20.695 202.83 -21.375 198.75 C-22.13454874 194.69694335 -22.97127619 190.66183254 -23.8125 186.625 C-24.01681641 185.61824219 -24.22113281 184.61148438 -24.43164062 183.57421875 C-25.39914828 178.91450899 -26.45064406 174.44615679 -28.0234375 169.953125 C-30.09558925 163.29430029 -29.69608699 156.53042003 -29.5625 149.625 C-29.54741432 148.27345254 -29.53373283 146.92188865 -29.52148438 145.5703125 C-29.48640724 142.29644629 -29.43725097 139.0234432 -29.375 135.75 C-30.138125 135.688125 -30.90125 135.62625 -31.6875 135.5625 C-34.375 134.75 -34.375 134.75 -36.16918945 132.77856445 C-37.8509901 128.55448327 -37.74804239 124.79737806 -37.66796875 120.29296875 C-37.66372391 119.39000565 -37.65947906 118.48704254 -37.65510559 117.55671692 C-37.63836311 114.6833365 -37.60071916 111.81066709 -37.5625 108.9375 C-37.54744743 106.9850362 -37.53376003 105.03256136 -37.52148438 103.08007812 C-37.48847408 98.30311303 -37.43672235 93.52667691 -37.375 88.75 C-38.92525879 88.77936646 -38.92525879 88.77936646 -40.50683594 88.80932617 C-41.8743438 88.82515924 -43.24185724 88.84051499 -44.609375 88.85546875 C-45.28919434 88.86960815 -45.96901367 88.88374756 -46.66943359 88.89831543 C-52.24546919 88.94404841 -55.12951107 88.32007024 -59.375 84.75 C-63.00964278 80.88086414 -62.76320838 76.6226341 -62.87109375 71.56640625 C-61.8133807 65.56159436 -57.03183278 60.92054145 -53.3125 56.25 C-52.33197148 55.01046395 -51.35150446 53.77087924 -50.37109375 52.53125 C-49.87335449 51.90347656 -49.37561523 51.27570313 -48.86279297 50.62890625 C-46.52471334 47.67618868 -44.20036006 44.71273661 -41.875 41.75 C-40.95575764 40.58070678 -40.03648676 39.41143598 -39.1171875 38.2421875 C-37.30625825 35.93771898 -35.49925437 33.63025413 -33.6953125 31.3203125 C-30.93400003 27.78723574 -28.15933926 24.2649557 -25.375 20.75 C-24.82457031 20.05455078 -24.27414062 19.35910156 -23.70703125 18.64257812 C-21.97794037 16.46470074 -20.24022688 14.29398559 -18.5 12.125 C-17.6968335 11.11203857 -17.6968335 11.11203857 -16.87744141 10.07861328 C-12.20295396 4.28424236 -8.00880822 -0.82001449 0 0 Z " fill="#6BF4C1" transform="translate(439.375,68.25)"/>
<path d="M0 0 C18.48 0 36.96 0 56 0 C57.98 3.63 59.96 7.26 62 11 C69.31798733 17.50487762 75.96516999 20.61627218 85.86328125 20.35546875 C92.84192074 19.56461421 100.09438327 17.19418242 105 12 C107.7047894 8.16094407 109.90001473 4.19997055 112 0 C130.48 0 148.96 0 168 0 C166.84045911 13.91449065 166.84045911 13.91449065 164.3125 20.0625 C163.9110376 21.07691162 163.9110376 21.07691162 163.50146484 22.11181641 C159.40897042 32.20759497 154.20519201 40.80925492 147 49 C146.33355469 49.76183594 145.66710937 50.52367187 144.98046875 51.30859375 C131.02804248 66.24467902 109.82840054 76.09085818 89.45703125 77.19140625 C65.90690935 77.55747032 44.56621848 71.11118532 27 55 C26.1234375 54.20464844 25.246875 53.40929687 24.34375 52.58984375 C18.43059332 46.97056383 13.99989016 41.09492085 10 34 C9.32517578 32.85144531 9.32517578 32.85144531 8.63671875 31.6796875 C5.77047882 26.44414087 3.91230733 21.00350729 2.1875 15.3125 C1.96819824 14.5994873 1.74889648 13.88647461 1.52294922 13.15185547 C1.22348389 12.11182373 1.22348389 12.11182373 0.91796875 11.05078125 C0.74031982 10.43887939 0.5626709 9.82697754 0.37963867 9.1965332 C-0.14289423 6.1732351 0 3.06812191 0 0 Z " fill="#EAEDEF" transform="translate(133,309)"/>
<path d="M0 0 C1.12535156 0.10054688 1.12535156 0.10054688 2.2734375 0.203125 C8.18064089 1.57689323 11.25556366 5.3913135 14.75 10.0625 C15.72113265 11.32959689 16.69249319 12.59651915 17.6640625 13.86328125 C18.15551758 14.50990723 18.64697266 15.1565332 19.15332031 15.82275391 C21.44504532 18.82389479 23.78594146 21.78571086 26.125 24.75 C27.04193297 25.91645738 27.95859896 27.08312468 28.875 28.25 C29.555625 29.11625 29.555625 29.11625 30.25 30 C31.625 31.75 33 33.5 34.375 35.25 C34.82915283 35.82790283 35.28330566 36.40580566 35.7512207 37.0012207 C36.66425008 38.16347935 37.57685054 39.32607506 38.48901367 40.48901367 C40.83285842 43.47608614 43.18474197 46.45624872 45.55078125 49.42578125 C60.75844865 68.54377306 60.75844865 68.54377306 60.625 75.75 C59.00725583 80.96273121 56.77583425 84.22179089 52.625 87.75 C49.00632441 88.9562252 45.69993749 88.85816918 41.9375 88.8125 C41.23560547 88.80798828 40.53371094 88.80347656 39.81054688 88.79882812 C38.08199462 88.78706927 36.35348635 88.76913454 34.625 88.75 C34.62960896 89.38445384 34.63421793 90.01890768 34.63896656 90.67258739 C34.74940624 106.11291047 34.83213703 121.55309611 34.88406086 136.99371624 C34.90983856 144.46071752 34.94498029 151.92745509 35.00219727 159.39428711 C35.05204614 165.90268356 35.08429419 172.41088903 35.09544247 178.91947109 C35.10195892 182.36557299 35.11726388 185.81112856 35.15365028 189.25705528 C35.19394826 193.1046609 35.19494846 196.95173288 35.19262695 200.79956055 C35.21060333 201.94107574 35.22857971 203.08259094 35.24710083 204.25869751 C35.19670947 211.95838634 35.19670947 211.95838634 32.30827332 215.95783997 C28.74270348 218.33928643 26.83197529 218.50124559 22.625 217.75 C20.05926949 216.08949567 19.0524695 215.35062208 17.625 212.75 C16.86855395 208.46266029 16.95282292 204.21290903 16.99389648 199.86914062 C16.98674118 198.55970993 16.97958588 197.25027924 16.97221375 195.90116882 C16.95371611 192.31627415 16.96662706 188.73212423 16.98630404 185.14726067 C17.00270586 181.39263945 16.99387553 177.63806483 16.98878479 173.88342285 C16.98426551 167.57857383 17.00012309 161.27402165 17.02807617 154.96923828 C17.06012759 147.68399017 17.06011196 140.39927738 17.0428614 133.11399126 C17.02698774 126.10068086 17.03373519 119.08756638 17.05079842 112.07426453 C17.05766415 109.09188103 17.05664146 106.10965481 17.04925346 103.12727356 C17.04015718 98.96150058 17.06414402 94.79655199 17.09155273 90.63085938 C17.08502686 89.39434128 17.07850098 88.15782318 17.07177734 86.88383484 C17.09086403 85.18049736 17.09086403 85.18049736 17.1103363 83.44274902 C17.11314322 82.45831566 17.11595015 81.47388229 17.11884212 80.45961761 C17.76790838 76.98496783 19.21725671 75.28874699 21.625 72.75 C24.796738 71.164131 28.26013822 71.37133555 31.75 71.1875 C32.50410156 71.14431641 33.25820313 71.10113281 34.03515625 71.05664062 C35.89821888 70.9505168 37.76158524 70.84974999 39.625 70.75 C32.7391846 61.64404445 25.78978619 52.61473328 18.52294922 43.80859375 C15.60882821 40.25835974 12.7894698 36.66237305 10.05859375 32.96875 C9.47335937 32.18113281 8.888125 31.39351562 8.28515625 30.58203125 C7.15813728 29.05633891 6.04175856 27.52271448 4.9375 25.98046875 C4.43089844 25.29597656 3.92429687 24.61148438 3.40234375 23.90625 C2.96140381 23.29587891 2.52046387 22.68550781 2.06616211 22.05664062 C0.45532838 20.30220985 0.45532838 20.30220985 -3.375 20.75 C-5.09328489 22.59386365 -6.49106124 24.33348157 -7.9375 26.375 C-8.82587299 27.57882658 -9.71522933 28.781928 -10.60546875 29.984375 C-11.29068604 30.92120117 -11.29068604 30.92120117 -11.98974609 31.87695312 C-14.18206721 34.84126183 -16.46410852 37.73261388 -18.75 40.625 C-19.20084961 41.19831055 -19.65169922 41.77162109 -20.11621094 42.36230469 C-24.11791261 47.44539513 -28.16930261 52.48829095 -32.21923828 57.53295898 C-35.69586933 61.87384707 -39.08177509 66.26755498 -42.375 70.75 C-41.27800781 70.77578125 -40.18101562 70.8015625 -39.05078125 70.828125 C-37.59631552 70.8844269 -36.14188997 70.94177377 -34.6875 71 C-33.96626953 71.01417969 -33.24503906 71.02835937 -32.50195312 71.04296875 C-27.5936976 71.26709001 -24.95591525 72.10746288 -21.375 75.75 C-20.13819304 78.22361392 -20.22812234 79.90403776 -20.19799805 82.67114258 C-20.17874519 84.20832695 -20.17874519 84.20832695 -20.15910339 85.77656555 C-20.15171646 86.88799423 -20.14432953 87.99942291 -20.13671875 89.14453125 C-20.128647 90.28403732 -20.12057526 91.4235434 -20.11225891 92.59757996 C-20.09841013 95.01271031 -20.08769154 97.4278603 -20.07983398 99.84301758 C-20.06261885 103.53699824 -20.01873806 107.23008471 -19.97460938 110.92382812 C-19.96448294 113.26822257 -19.95596669 115.61262464 -19.94921875 117.95703125 C-19.93171066 119.06238724 -19.91420258 120.16774323 -19.89616394 121.30659485 C-19.91788918 128.98689665 -19.91788918 128.98689665 -22.27661133 132.92456055 C-24.83861 135.15330564 -25.84760501 135.70413957 -29.25 136 C-32.71377379 135.7228981 -33.94769229 135.17730771 -36.375 132.75 C-37.28535504 130.01893489 -37.49715713 128.45106761 -37.48852539 125.64575195 C-37.48844986 124.82512772 -37.48837433 124.00450348 -37.48829651 123.15901184 C-37.48313522 122.27767075 -37.47797394 121.39632965 -37.47265625 120.48828125 C-37.4712413 119.58248825 -37.46982635 118.67669525 -37.46836853 117.74345398 C-37.46277001 114.84976909 -37.45021781 111.95616151 -37.4375 109.0625 C-37.43248481 107.10091258 -37.42792193 105.13932394 -37.42382812 103.17773438 C-37.41280107 98.36845979 -37.39553747 93.559243 -37.375 88.75 C-38.92525879 88.77936646 -38.92525879 88.77936646 -40.50683594 88.80932617 C-41.8743438 88.82515924 -43.24185724 88.84051499 -44.609375 88.85546875 C-45.28919434 88.86960815 -45.96901367 88.88374756 -46.66943359 88.89831543 C-52.24546919 88.94404841 -55.12951107 88.32007024 -59.375 84.75 C-63.00964278 80.88086414 -62.76320838 76.6226341 -62.87109375 71.56640625 C-61.8133807 65.56159436 -57.03183278 60.92054145 -53.3125 56.25 C-52.33197148 55.01046395 -51.35150446 53.77087924 -50.37109375 52.53125 C-49.87335449 51.90347656 -49.37561523 51.27570313 -48.86279297 50.62890625 C-46.52471334 47.67618868 -44.20036006 44.71273661 -41.875 41.75 C-40.95575764 40.58070678 -40.03648676 39.41143598 -39.1171875 38.2421875 C-37.30625825 35.93771898 -35.49925437 33.63025413 -33.6953125 31.3203125 C-30.93400003 27.78723574 -28.15933926 24.2649557 -25.375 20.75 C-24.82457031 20.05455078 -24.27414062 19.35910156 -23.70703125 18.64257812 C-21.97794037 16.46470074 -20.24022688 14.29398559 -18.5 12.125 C-17.6968335 11.11203857 -17.6968335 11.11203857 -16.87744141 10.07861328 C-12.20295396 4.28424236 -8.00880822 -0.82001449 0 0 Z " fill="#000302" transform="translate(439.375,68.25)"/>
<path d="M0 0 C7.49360995 3.78828252 12.53791579 12.54765969 17.53808594 19.10302734 C19.93442812 22.21250944 22.40883452 25.25834236 24.875 28.3125 C30.32059794 35.08888923 35.61369547 41.97543934 40.87109375 48.8984375 C42.88336179 51.5462567 44.91506648 54.17631561 46.97265625 56.7890625 C47.66270752 57.66957275 47.66270752 57.66957275 48.36669922 58.56787109 C49.5986534 60.13684786 50.83622133 61.70141223 52.07421875 63.265625 C55.58607989 68.25204042 56.44238545 71.83117537 55.609375 77.78125 C54.45423725 81.98713617 51.92448978 84.65786174 48.34765625 87.15234375 C44.85727777 88.41259688 41.40805968 88.20901904 37.75 88.125 C37.00492187 88.11597656 36.25984375 88.10695313 35.4921875 88.09765625 C33.66131941 88.07418358 31.83061762 88.03831525 30 88 C30.02618408 89.18553467 30.05236816 90.37106934 30.0793457 91.5925293 C30.16999021 95.99988866 30.22730088 100.407166 30.2746582 104.81518555 C30.29976999 106.72125107 30.33386645 108.62722059 30.37719727 110.53295898 C30.43799744 113.27611998 30.46624245 116.01800586 30.48828125 118.76171875 C30.51408768 119.61086349 30.5398941 120.46000824 30.56648254 121.33488464 C30.56856568 125.75015428 30.41742949 127.46227173 27.61865234 131.06762695 C25 133 25 133 22.61328125 133.15625 C21.85402344 132.9396875 21.09476562 132.723125 20.3125 132.5 C19.54550781 132.3040625 18.77851563 132.108125 17.98828125 131.90625 C16 131 16 131 14 128 C13.73257446 125.69203186 13.73257446 125.69203186 13.70947266 122.94946289 C13.69671295 121.92152115 13.68395325 120.89357941 13.67080688 119.83448792 C13.66858124 118.72508347 13.66635559 117.61567902 13.6640625 116.47265625 C13.6540773 114.76196205 13.6540773 114.76196205 13.64389038 113.01670837 C13.6337594 110.60335912 13.6290735 108.18998183 13.62939453 105.77661133 C13.62502121 102.08042363 13.58870385 98.38542948 13.55078125 94.68945312 C13.54491332 92.34635826 13.54094377 90.00325771 13.5390625 87.66015625 C13.52469147 86.55277603 13.51032043 85.44539581 13.49551392 84.30445862 C13.50166718 83.27336472 13.50782043 82.24227081 13.51416016 81.17993164 C13.51131012 80.27408829 13.50846008 79.36824493 13.50552368 78.43495178 C14.15576564 75.23296261 15.50135814 74.03380484 18 72 C20.10644531 71.45410156 20.10644531 71.45410156 22.328125 71.390625 C23.12734375 71.35839844 23.9265625 71.32617188 24.75 71.29296875 C25.575 71.27878906 26.4 71.26460938 27.25 71.25 C28.09046875 71.22035156 28.9309375 71.19070312 29.796875 71.16015625 C31.8640715 71.08968364 33.93204033 71.04255061 36 71 C35.17757812 69.99582031 34.35515625 68.99164063 33.5078125 67.95703125 C27.38387543 60.46115525 21.34450189 52.92202199 15.47265625 45.2265625 C12.32889612 41.11012628 9.12210566 37.04351487 5.91381836 32.97729492 C2.67904092 28.87557156 -0.50979623 24.74132088 -3.66015625 20.57421875 C-4.93338717 18.87027896 -4.93338717 18.87027896 -7 18 C-7.22816406 18.52851563 -7.45632813 19.05703125 -7.69140625 19.6015625 C-9.43558872 22.7983626 -11.66675072 25.54442611 -13.9375 28.375 C-14.93629186 29.6327379 -15.93498711 30.89055253 -16.93359375 32.1484375 C-17.69905518 33.1089502 -17.69905518 33.1089502 -18.47998047 34.08886719 C-20.83383462 37.04838699 -23.16649759 40.02442679 -25.5 43 C-28.30537625 46.57285638 -31.11281747 50.14405085 -33.92578125 53.7109375 C-38.68974818 59.75557507 -43.42138313 65.8126799 -48 72 C-46.75863281 71.94199219 -45.51726562 71.88398437 -44.23828125 71.82421875 C-42.59639186 71.77730762 -40.95446168 71.73180891 -39.3125 71.6875 C-38.49587891 71.64560547 -37.67925781 71.60371094 -36.83789062 71.56054688 C-32.57390051 71.47423129 -30.55965291 71.61806018 -26.94921875 74.08203125 C-24.55420195 77.667357 -24.38923828 79.71721355 -24.5 84 C-24.5103125 85.19625 -24.520625 86.3925 -24.53125 87.625 C-25.03028956 91.21808482 -25.78207986 93.15280949 -28 96 C-31.375 97.5 -31.375 97.5 -35 98 C-38.06326695 96.77469322 -39.50693847 95.75133186 -41.3125 93 C-42 91 -42 91 -42 88 C-43.00160156 88.04640625 -44.00320313 88.0928125 -45.03515625 88.140625 C-58.68561253 88.58969827 -58.68561253 88.58969827 -64 84 C-67.3850198 79.30464996 -67.84176432 74.60516006 -67 69 C-64.46854087 62.90148483 -59.94723446 58.2239 -55.703125 53.23046875 C-52.63769832 49.60260864 -49.76184084 45.83792908 -46.88549805 42.05908203 C-43.2319773 37.27190462 -39.47015727 32.577775 -35.68774414 27.89208984 C-32.91151378 24.43748242 -30.18989812 20.95036814 -27.5234375 17.41015625 C-26.9456958 16.64413086 -26.3679541 15.87810547 -25.77270508 15.08886719 C-24.66017228 13.60803124 -23.55293685 12.12319554 -22.4519043 10.63378906 C-16.16634062 2.26896292 -10.74432042 -1.66873641 0 0 Z " fill="#000001" transform="translate(338,7)"/>
<path d="M0 0 C3.09056238 1.33768761 4.78833593 2.64552336 6.77734375 5.3515625 C7.28410645 6.02985107 7.79086914 6.70813965 8.31298828 7.40698242 C9.11712158 8.50490112 9.11712158 8.50490112 9.9375 9.625 C11.09817187 11.17734503 12.26098818 12.72808864 13.42578125 14.27734375 C14.0182666 15.06608887 14.61075195 15.85483398 15.22119141 16.66748047 C17.94447465 20.23847252 20.7767965 23.71586448 23.625 27.1875 C27.82787062 32.32603461 32.00857405 37.47931426 36.125 42.6875 C36.79909912 43.53380981 36.79909912 43.53380981 37.48681641 44.3972168 C39.91117655 47.47679682 42.06483219 50.59132205 44 54 C43.44014404 54.02505615 42.88028809 54.0501123 42.3034668 54.07592773 C39.76458695 54.19203745 37.22606447 54.3146958 34.6875 54.4375 C33.80642578 54.47681641 32.92535156 54.51613281 32.01757812 54.55664062 C31.17001953 54.59853516 30.32246094 54.64042969 29.44921875 54.68359375 C28.66893311 54.72025146 27.88864746 54.75690918 27.0847168 54.79467773 C24.80670899 54.94125263 24.80670899 54.94125263 22 56 C21.92406409 63.6354334 21.87144831 71.27076977 21.83520508 78.90649414 C21.82009937 81.50516397 21.79961366 84.10380823 21.77368164 86.70239258 C21.73737757 90.43316958 21.72029142 94.16361013 21.70703125 97.89453125 C21.69154739 99.06023148 21.67606354 100.2259317 21.66011047 101.42695618 C21.65977058 103.0482972 21.65977058 103.0482972 21.65942383 104.70239258 C21.65276199 105.65503494 21.64610016 106.60767731 21.63923645 107.58918762 C21.81659486 110.02912584 21.81659486 110.02912584 23.27128601 111.76860046 C25.2165245 113.31289432 25.2165245 113.31289432 29 114 C29 117.96 29 121.92 29 126 C28.071875 125.195625 27.14375 124.39125 26.1875 123.5625 C10.27531387 109.96885596 -5.93159036 98.52272371 -24.10498047 88.13232422 C-26 87 -26 87 -27 86 C-27.04080783 84.00041636 -27.04254356 81.99954746 -27 80 C-25.20963542 79.05598958 -23.41927083 78.11197917 -21.62890625 77.16796875 C-19.67732013 76.00980201 -19.67732013 76.00980201 -19 73 C-18.82889518 70.69148747 -18.73364199 68.37688499 -18.6875 66.0625 C-18.65011719 64.83660156 -18.61273438 63.61070313 -18.57421875 62.34765625 C-18.76870764 59.01977642 -18.76870764 59.01977642 -20.44140625 56.60546875 C-24.25493773 54.21255052 -27.82810051 54.3260014 -32.25 54.25 C-33.51070313 54.20552734 -33.51070313 54.20552734 -34.796875 54.16015625 C-36.8640715 54.08968364 -38.93204033 54.04255061 -41 54 C-39.30781966 50.08026022 -36.71205662 46.92765834 -34.0625 43.625 C-33.06238284 42.36597848 -32.06238613 41.10686126 -31.0625 39.84765625 C-30.55203125 39.20715332 -30.0415625 38.56665039 -29.515625 37.90673828 C-27.63369902 35.53917355 -25.76863266 33.15871261 -23.90454102 30.77709961 C-20.56462326 26.51000076 -17.21115909 22.25491828 -13.81640625 18.03125 C-13.28394287 17.36859131 -12.75147949 16.70593262 -12.20288086 16.02319336 C-11.18595166 14.75954514 -10.16735939 13.49723259 -9.14672852 12.23657227 C-5.94296085 8.25733531 -2.93662993 4.18069316 0 0 Z " fill="#88C7FC" transform="translate(331,25)"/>
<path d="M0 0 C6.14163508 3.30896257 12.24748715 6.67782652 18.3125 10.125 C19.44300781 10.76695312 20.57351562 11.40890625 21.73828125 12.0703125 C24.91199002 13.94793182 27.95325193 15.92581448 31 18 C29.94441776 21.32274411 28.79134748 24.56938669 27.44921875 27.78515625 C20.11615988 45.45730806 16.59720739 62.97871202 15 82 C3.12 82 -8.76 82 -21 82 C-19.81458934 63.03342951 -19.81458934 63.03342951 -18.3125 54.25 C-18.13879883 53.23341309 -17.96509766 52.21682617 -17.78613281 51.16943359 C-14.52587918 33.05722732 -8.35214281 16.36338182 0 0 Z " fill="#6AF3C0" transform="translate(50,211)"/>
<path d="M0 0 C11.82858285 14.06246382 16.30727699 36.6619184 19.3125 54.25 C19.55178223 55.64919678 19.55178223 55.64919678 19.79589844 57.07666016 C21.1098377 65.43453212 21.46561755 73.44988086 22 82 C10.12 82 -1.76 82 -14 82 C-14.20625 79.36 -14.4125 76.72 -14.625 74 C-16.25569888 57.26761146 -20.46127583 41.04965954 -27.54736328 25.79882812 C-30.09267902 20.27803706 -30.09267902 20.27803706 -29 17 C-26.76269531 15.421875 -26.76269531 15.421875 -23.828125 13.75 C-22.77109375 13.1415625 -21.7140625 12.533125 -20.625 11.90625 C-19.51125 11.2771875 -18.3975 10.648125 -17.25 10 C-15.06768724 8.75003682 -12.88539486 7.50003807 -10.703125 6.25 C-9.73020508 5.69828125 -8.75728516 5.1465625 -7.75488281 4.578125 C-5.14877668 3.0852262 -2.56963906 1.5546609 0 0 Z " fill="#FB4654" transform="translate(383,211)"/>
<path d="M0 0 C21.23931552 1.17996197 21.23931552 1.17996197 29.625 3 C31.11543823 3.31723022 31.11543823 3.31723022 32.63598633 3.64086914 C48.70430958 7.29247412 64.27076362 13.66414985 79 21 C77.50400128 25.01437211 75.61341264 28.65737232 73.5234375 32.39453125 C73.19332672 32.98674973 72.86321594 33.5789682 72.52310181 34.18913269 C71.47653441 36.0651685 70.42584018 37.93885485 69.375 39.8125 C68.66118365 41.09034139 67.94763914 42.36833467 67.234375 43.64648438 C65.49272484 46.76608639 63.74736793 49.88359626 62 53 C58.86102191 52.43699419 56.0405424 51.73030888 53.109375 50.4765625 C52.40482178 50.17911133 51.70026855 49.88166016 50.97436523 49.57519531 C50.24032471 49.26163086 49.50628418 48.94806641 48.75 48.625 C32.57313137 41.87938049 17.5283552 39.33711403 0 37 C0 24.79 0 12.58 0 0 Z " fill="#FCC137" transform="translate(225,108)"/>
<path d="M0 0 C0 12.21 0 24.42 0 37 C-7.92 37.99 -7.92 37.99 -16 39 C-18.97791045 39.50795401 -21.87621221 40.02403289 -24.8125 40.6875 C-25.90546387 40.93197876 -25.90546387 40.93197876 -27.02050781 41.18139648 C-37.05565124 43.56426285 -47.16405571 47.02095402 -56.359375 51.71484375 C-59 53 -59 53 -62 53 C-64.26355589 48.92666443 -66.52380262 44.85151748 -68.78100586 40.7746582 C-69.54930454 39.38808751 -70.31850421 38.00201566 -71.08862305 36.61645508 C-72.1955729 34.62451631 -73.29926751 32.6308046 -74.40234375 30.63671875 C-74.74716293 30.01786301 -75.09198212 29.39900726 -75.44725037 28.76139832 C-76.86558622 26.19106181 -78.0688989 23.79330331 -79 21 C-54.26095228 8.66252154 -27.90593293 0 0 0 Z " fill="#FCCD63" transform="translate(209,108)"/>
<path d="M0 0 C10.88625931 3.70894654 20.34195447 13.77737495 28.56787109 21.63525391 C29.94699053 22.94948467 31.34235213 24.24660661 32.73828125 25.54296875 C40.80966465 33.2639303 47.47364072 41.9597494 54 51 C54.41781738 51.57411621 54.83563477 52.14823242 55.26611328 52.73974609 C57.14215738 55.41098922 58 56.65521254 58 60 C55.93084301 61.49550079 53.93721011 62.75737607 51.7265625 64.01171875 C51.08762054 64.38480667 50.44867859 64.75789459 49.79037476 65.14228821 C48.43653422 65.92994516 47.07954496 66.71221076 45.71972656 67.48950195 C43.63413967 68.68227292 41.55869592 69.89127893 39.484375 71.10351562 C38.16983455 71.86555659 36.85474794 72.62665636 35.5390625 73.38671875 C34.91504547 73.74916183 34.29102844 74.11160492 33.64810181 74.48503113 C29.23337763 77 29.23337763 77 27 77 C25.46965303 74.96665054 24.04079354 72.92365018 22.625 70.8125 C11.94755683 55.41245497 -1.6133873 42.65455966 -17 32 C-15.56271539 28.16270055 -13.7918756 24.67938155 -11.77734375 21.11328125 C-10.84631836 19.4590918 -10.84631836 19.4590918 -9.89648438 17.77148438 C-9.25001953 16.63001953 -8.60355469 15.48855469 -7.9375 14.3125 C-6.65406631 12.03825678 -5.37207296 9.76320404 -4.08984375 7.48828125 C-3.52128662 6.48321533 -2.95272949 5.47814941 -2.36694336 4.44262695 C-1.54751944 2.97837686 -0.75039775 1.5007955 0 0 Z " fill="#FA4654" transform="translate(317,138)"/>
<path d="M0 0 C0.33733154 0.62455078 0.67466309 1.24910156 1.0222168 1.89257812 C2.57464243 4.76317115 4.13104177 7.63159163 5.6875 10.5 C6.21794922 11.48226562 6.74839844 12.46453125 7.29492188 13.4765625 C10.07594552 18.59501093 12.90486047 23.5712592 16.22583008 28.36132812 C17 30 17 30 16 33 C14.28166524 34.40034072 12.49870901 35.72205227 10.6875 37 C-4.44487143 47.98838768 -16.73369984 61.40216716 -27 77 C-31.94817302 75.57322619 -35.91920611 73.44133088 -40.25 70.75 C-41.56899838 69.94399073 -42.88800885 69.13800122 -44.20703125 68.33203125 C-44.84850098 67.93709473 -45.4899707 67.5421582 -46.15087891 67.13525391 C-48.73437223 65.54913772 -51.33538652 63.99282888 -53.9375 62.4375 C-55.29166667 61.625 -56.64583333 60.8125 -58 60 C-54.61851626 38.63517089 -22.62159448 14.83037292 -6.66308594 3.18237305 C-2.18686764 0 -2.18686764 0 0 0 Z " fill="#00CD88" transform="translate(117,138)"/>
<path d="M0 0 C1.36680153 2.26404542 2.71844445 4.53501021 4.0625 6.8125 C4.45244141 7.45509766 4.84238281 8.09769531 5.24414062 8.75976562 C6.24130759 10.4628915 7.12812687 12.22945858 8 14 C6.70386533 17.88840401 5.01656608 18.65108697 1.6875 21 C-13.44487143 31.98838768 -25.73369984 45.40216716 -36 61 C-40.38330612 59.69281227 -44.00705491 57.99961987 -47.875 55.5625 C-48.84179688 54.96566406 -49.80859375 54.36882812 -50.8046875 53.75390625 C-51.52914062 53.17511719 -52.25359375 52.59632813 -53 52 C-53 42.62105447 -40.3418468 32.62424178 -34 26 C-33.11183594 25.05898437 -32.22367188 24.11796875 -31.30859375 23.1484375 C-8.91003521 0 -8.91003521 0 0 0 Z " fill="#00E197" transform="translate(126,154)"/>
<path d="M0 0 C4.29970343 1.49206127 7.83146879 3.736268 11.5 6.375 C12.10803467 6.81126709 12.71606934 7.24753418 13.3425293 7.69702148 C19.50905775 12.22084353 25.08173984 17.29686459 30.56738281 22.61425781 C31.8526861 23.85750618 33.15573077 25.08235104 34.4609375 26.3046875 C40.72951502 32.30932492 45.84448593 39.04843138 51 46 C51.59039062 46.74636719 52.18078125 47.49273437 52.7890625 48.26171875 C54 50 54 50 54 52 C51.37785672 53.50519387 48.75255792 55.00431319 46.125 56.5 C45.37863281 56.92925781 44.63226563 57.35851562 43.86328125 57.80078125 C43.14785156 58.20683594 42.43242187 58.61289063 41.6953125 59.03125 C41.03547363 59.40830078 40.37563477 59.78535156 39.69580078 60.17382812 C38 61 38 61 36 61 C34.46965303 58.96665054 33.04079354 56.92365018 31.625 54.8125 C20.94755683 39.41245497 7.3866127 26.65455966 -8 16 C-6.57250019 12.20950293 -4.83763458 8.72877544 -2.875 5.1875 C-2.33617187 4.21167969 -1.79734375 3.23585937 -1.2421875 2.23046875 C-0.83226562 1.49441406 -0.42234375 0.75835937 0 0 Z " fill="#FB626D" transform="translate(308,154)"/>
<path d="M0 0 C11.35656978 15.14209304 16.18006968 35.91743702 19.3125 54.25 C19.55178223 55.64919678 19.55178223 55.64919678 19.79589844 57.07666016 C21.1098377 65.43453212 21.46561755 73.44988086 22 82 C10.12 82 -1.76 82 -14 82 C-14 81.67 -14 81.34 -14 81 C-6.74 81 0.52 81 8 81 C3.63220022 41.78797981 3.63220022 41.78797981 -14 8 C-9.38 5.36 -4.76 2.72 0 0 Z " fill="#E73140" transform="translate(383,211)"/>
<path d="M0 0 C0 5.61 0 11.22 0 17 C-2.26875 17.2475 -4.5375 17.495 -6.875 17.75 C-23.94374002 19.83034659 -40.95933463 23.85366035 -56.359375 31.71484375 C-59 33 -59 33 -62 33 C-63.17441535 30.89983377 -64.33964012 28.79541245 -65.5 26.6875 C-65.83386719 26.09259766 -66.16773438 25.49769531 -66.51171875 24.88476562 C-68.06825114 22.04171156 -69 20.29339012 -69 17 C-47.76867413 6.27326137 -24.00139573 -1.17079979 0 0 Z " fill="#FDDF75" transform="translate(209,128)"/>
<path d="M0 0 C23.71144181 -0.64084978 48.04464484 5.99072176 69 17 C68.40165275 21.14298667 66.99335715 24.18194377 64.9375 27.8125 C64.38964844 28.78832031 63.84179688 29.76414063 63.27734375 30.76953125 C62.85582031 31.50558594 62.43429687 32.24164063 62 33 C57.24275223 32.30701509 53.13495039 30.49814531 48.75 28.625 C32.77864843 21.96507939 17.10923892 19.13865486 0 17 C0 11.39 0 5.78 0 0 Z " fill="#FCCD62" transform="translate(225,128)"/>
<path d="M0 0 C0.77085938 0.42152344 1.54171875 0.84304687 2.3359375 1.27734375 C3.84027344 2.09912109 3.84027344 2.09912109 5.375 2.9375 C6.37273438 3.48277344 7.37046875 4.02804688 8.3984375 4.58984375 C9.92070346 5.4149759 11.45128783 6.22564391 13 7 C12.34578819 11.8777263 10.3132027 15.90680053 8.25 20.3125 C-0.69785834 40.0321111 -4.61797121 60.56174089 -7 82 C-11.62 82 -16.24 82 -21 82 C-19.88108307 52.90815976 -13.23683812 25.93339713 0 0 Z " fill="#00E096" transform="translate(50,211)"/>
<path d="M0 0 C2.31 0 4.62 0 7 0 C7 42.9 7 85.8 7 130 C3.7 130 0.4 130 -3 130 C-2.34 129.01 -1.68 128.02 -1 127 C-0.68848002 124.5732329 -0.68848002 124.5732329 -0.7215271 121.81782532 C-0.71036362 120.74510376 -0.69920013 119.6723822 -0.68769836 118.56715393 C-0.68553818 117.39039597 -0.68337799 116.213638 -0.68115234 115.0012207 C-0.67110672 113.76207916 -0.6610611 112.52293762 -0.65071106 111.24624634 C-0.62509299 107.84773546 -0.60825381 104.44939203 -0.59528303 101.05082345 C-0.5796643 97.49934385 -0.5528701 93.94794917 -0.5272522 90.39653015 C-0.48044207 83.67116978 -0.44370882 76.94579347 -0.41057932 70.22035331 C-0.37237368 62.56378692 -0.32295947 54.90730578 -0.27259517 47.25081122 C-0.1692421 31.50060241 -0.07999273 15.75034582 0 0 Z " fill="#07E59B" transform="translate(450,149)"/>
<path d="M0 0 C-3.45978752 14.66290901 -9.01376121 37.01376121 -20 48 C-19.673275 55.90674508 -15.72634481 62.68406761 -12.41796875 69.7265625 C-11.96808594 70.7165625 -11.51820313 71.7065625 -11.0546875 72.7265625 C-10.63687012 73.61939941 -10.21905273 74.51223633 -9.78857422 75.43212891 C-8.81686184 78.59636137 -8.80704085 79.90189362 -10 83 C-11.870658 85.29410312 -13.71262839 87.34452182 -15.79296875 89.4296875 C-16.37661697 90.02427765 -16.9602652 90.6188678 -17.56159973 91.23147583 C-18.79635796 92.4820705 -20.03646132 93.72740728 -21.28149414 94.96777344 C-23.18310734 96.87060453 -25.05349359 98.80085182 -26.92382812 100.734375 C-28.12841277 101.94709866 -29.3347369 103.1580975 -30.54296875 104.3671875 C-31.37769966 105.23728958 -31.37769966 105.23728958 -32.22929382 106.12496948 C-33.85620117 107.71435547 -33.85620117 107.71435547 -37 110 C-40.40356445 109.85205078 -40.40356445 109.85205078 -43 109 C-41.92649292 108.17097168 -41.92649292 108.17097168 -40.83129883 107.32519531 C-37.94281405 104.95303622 -35.3339866 102.44705084 -32.69921875 99.796875 C-31.97736137 99.0728952 -31.97736137 99.0728952 -31.24092102 98.33428955 C-29.7207273 96.80854672 -28.20406862 95.27934531 -26.6875 93.75 C-25.65062331 92.70810172 -24.61351611 91.66643278 -23.57617188 90.625 C-21.04811174 88.08597846 -18.52320739 85.54384518 -16 83 C-19.40002887 73.87893585 -19.40002887 73.87893585 -23.30859375 64.96875 C-23.66244141 64.22109375 -24.01628906 63.4734375 -24.38085938 62.703125 C-25.10260102 61.19827366 -25.83487252 59.69843896 -26.57617188 58.203125 C-26.92099609 57.46578125 -27.26582031 56.7284375 -27.62109375 55.96875 C-27.9348999 55.32357422 -28.24870605 54.67839844 -28.57202148 54.01367188 C-29.18155359 51.14577638 -28.25836475 49.60548129 -27 47 C-26.65356445 46.27079346 -26.30712891 45.54158691 -25.95019531 44.7902832 C-25.57991211 44.05124756 -25.20962891 43.31221191 -24.828125 42.55078125 C-18.70397201 30.14175197 -13.90347226 17.84704739 -9.9921875 4.58203125 C-9 2 -9 2 -6.625 0.625 C-4 0 -4 0 0 0 Z " fill="#FBCD62" transform="translate(373,338)"/>
<path d="M0 0 C3.47732409 2.99211608 5.37308109 4.99511621 6.00390625 9.64453125 C6.26963652 15.36201809 5.65597152 18.91500453 1.6875 23.3125 C-1.7746961 26.19766342 -4.80046884 26.85167865 -9.3203125 26.6640625 C-13.63119652 25.90331826 -16.33175843 23.39131573 -19.1875 20.25 C-20.96132705 15.61834049 -21.08610971 11.19770205 -20.3125 6.3125 C-18.69985434 3.0744099 -16.37509073 1.11860332 -13.5 -1.0625 C-8.37965237 -2.52545646 -4.65895078 -2.37342776 0 0 Z " fill="#655B65" transform="translate(224.3125,287.6875)"/>
<path d="M0 0 C0.33 0 0.66 0 1 0 C1.00586624 0.61974197 1.01173248 1.23948395 1.01777649 1.87800598 C1.0816235 8.31814421 1.16602033 14.75777868 1.26245117 21.19750977 C1.29574176 23.60206467 1.32376067 26.00669851 1.34643555 28.41137695 C1.3799051 31.86443779 1.43221797 35.31677261 1.48828125 38.76953125 C1.49467117 39.84773636 1.5010611 40.92594147 1.50764465 42.03681946 C1.53733589 43.53803596 1.53733589 43.53803596 1.56762695 45.06958008 C1.57873001 45.95116287 1.58983307 46.83274567 1.60127258 47.74104309 C2.08868499 50.50243741 2.74910847 51.36132258 5 53 C6.32 53.33 7.64 53.66 9 54 C9 57.96 9 61.92 9 66 C7.576875 64.7625 7.576875 64.7625 6.125 63.5 C1.51549679 59.54358862 -3.24034752 55.77324563 -8 52 C-7.01 51.505 -7.01 51.505 -6 51 C-6 35.16 -6 19.32 -6 3 C-4.02 3 -2.04 3 0 3 C0 2.01 0 1.02 0 0 Z " fill="#5BADF0" transform="translate(351,85)"/>
<path d="M0 0 C3.09056238 1.33768761 4.78833593 2.64552336 6.77734375 5.3515625 C7.28410645 6.02985107 7.79086914 6.70813965 8.31298828 7.40698242 C8.84907715 8.13892822 9.38516602 8.87087402 9.9375 9.625 C11.09817187 11.17734503 12.26098818 12.72808864 13.42578125 14.27734375 C14.0182666 15.06608887 14.61075195 15.85483398 15.22119141 16.66748047 C17.94447465 20.23847252 20.7767965 23.71586448 23.625 27.1875 C27.82787062 32.32603461 32.00857405 37.47931426 36.125 42.6875 C36.57439941 43.25170654 37.02379883 43.81591309 37.48681641 44.3972168 C39.94373211 47.51815102 41.9396534 50.56608899 44 54 C38.39 54 32.78 54 27 54 C27 53.67 27 53.34 27 53 C31.95 52.505 31.95 52.505 37 52 C35.78376953 50.51113281 35.78376953 50.51113281 34.54296875 48.9921875 C26.75270259 39.43969634 19.08175751 29.80379662 11.50488281 20.08154297 C10.49313714 18.78372863 9.48061538 17.48651891 8.46728516 16.18994141 C7.51462448 14.97097958 6.56367594 13.75067702 5.61474609 12.52880859 C3.53632293 9.87057785 1.47321931 7.30237192 -1 5 C-1.99 5.66 -2.98 6.32 -4 7 C-2.79618552 4.50638429 -1.54571278 2.31856917 0 0 Z " fill="#5DAEF1" transform="translate(331,25)"/>
<path d="M0 0 C4.26574753 1.54398287 6.43358212 4.75233052 9.0625 8.25 C10.042767 9.52619666 11.0232415 10.80223395 12.00390625 12.078125 C12.50164551 12.73103516 12.99938477 13.38394531 13.51220703 14.05664062 C15.81218675 17.06088062 18.1568637 20.02938831 20.5 23 C21.41037188 24.15868478 22.32052713 25.31753979 23.23046875 26.4765625 C25.12649346 28.88993014 27.02529198 31.30108428 28.92578125 33.7109375 C43 51.56628965 43 51.56628965 43 53 C40.7890625 53.3203125 40.7890625 53.3203125 38 53 C35.7109375 50.8671875 35.7109375 50.8671875 33.375 47.875 C32.94823975 47.3372998 32.52147949 46.79959961 32.08178711 46.24560547 C30.70720275 44.50757931 29.35404759 42.7540524 28 41 C27.09935392 39.85803403 26.1970158 38.71740046 25.29296875 37.578125 C22.98362529 34.66214928 20.69139026 31.73325056 18.40429688 28.79980469 C16.04670931 25.77822341 13.67987274 22.76391721 11.3125 19.75 C10.85907227 19.1725 10.40564453 18.595 9.93847656 18 C5.98946798 12.97555335 2.00475979 7.98013109 -2 3 C-1.34 2.01 -0.68 1.02 0 0 Z " fill="#02DD95" transform="translate(437,87)"/>
<path d="M0 0 C-2.43703474 9.44641085 -6.23659422 17.86030024 -10 27 C-23.86 27 -37.72 27 -52 27 C-52 26.67 -52 26.34 -52 26 C-34.675 25.505 -34.675 25.505 -17 25 C-14.28289515 17.52983607 -14.28289515 17.52983607 -11.61669922 10.04150391 C-8.73298744 2.39801038 -8.73298744 2.39801038 -4.8203125 0.2734375 C-2 0 -2 0 0 0 Z " fill="#F9CE64" transform="translate(248,462)"/>
<path d="M0 0 C1.32 0 2.64 0 4 0 C4.14695313 1.12535156 4.29390625 2.25070312 4.4453125 3.41015625 C6.46288307 17.65173911 10.57300981 29.47955781 17.99609375 41.92578125 C18.32738281 42.61027344 18.65867188 43.29476562 19 44 C18.67 44.66 18.34 45.32 18 46 C10.81222355 36.38794391 5.59432916 26.67513873 2.125 15.1875 C1.90956543 14.48230225 1.69413086 13.77710449 1.47216797 13.05053711 C0.19318425 8.55819952 -0.20747685 4.66822912 0 0 Z " fill="#CACACF" transform="translate(133,309)"/>
<path d="M0 0 C2.97 0 5.94 0 9 0 C9 4.29 9 8.58 9 13 C4.545 14.485 4.545 14.485 0 16 C0 10.72 0 5.44 0 0 Z " fill="#FDCF63" transform="translate(396,309)"/>
<path d="M0 0 C1 2 1 2 0.19555664 4.43017578 C-0.22862549 5.4251709 -0.65280762 6.42016602 -1.08984375 7.4453125 C-1.54423828 8.52167969 -1.99863281 9.59804688 -2.46679688 10.70703125 C-2.95212891 11.83496094 -3.43746094 12.96289062 -3.9375 14.125 C-4.65969727 15.82849609 -4.65969727 15.82849609 -5.39648438 17.56640625 C-6.59075486 20.3806278 -7.79219124 23.19156835 -9 26 C-13.75 24.125 -13.75 24.125 -16 23 C-14.43426041 17.93091809 -11.32515704 14.39028397 -8 10.375 C-6.91567896 9.05028703 -5.83230816 7.72479554 -4.75 6.3984375 C-4.27046875 5.81755371 -3.7909375 5.23666992 -3.296875 4.63818359 C-2.11951011 3.15096251 -1.05217937 1.57826906 0 0 Z " fill="#A296A2" transform="translate(245,250)"/>
<path d="M0 0 C1 2 1 2 0.19555664 4.43017578 C-0.22862549 5.4251709 -0.65280762 6.42016602 -1.08984375 7.4453125 C-1.54423828 8.52167969 -1.99863281 9.59804688 -2.46679688 10.70703125 C-2.95212891 11.83496094 -3.43746094 12.96289062 -3.9375 14.125 C-4.41896484 15.26066406 -4.90042969 16.39632813 -5.39648438 17.56640625 C-6.59075486 20.3806278 -7.79219124 23.19156835 -9 26 C-9.66 25.67 -10.32 25.34 -11 25 C-10.50628906 23.81921875 -10.01257813 22.6384375 -9.50390625 21.421875 C-8.85662369 19.86464449 -8.20949639 18.30734943 -7.5625 16.75 C-7.23701172 15.97269531 -6.91152344 15.19539063 -6.57617188 14.39453125 C-6.26357422 13.64042969 -5.95097656 12.88632812 -5.62890625 12.109375 C-5.34088135 11.41811523 -5.05285645 10.72685547 -4.75610352 10.01464844 C-3.95571665 8.00942629 -3.95571665 8.00942629 -3.49584961 5.88378906 C-2.8559173 3.45261345 -1.58092774 1.92460768 0 0 Z " fill="#736873" transform="translate(245,250)"/>
<path d="M0 0 C1 2 1 2 0.4375 3.875 C-1.52809544 6.78066282 -4.03322518 8.19413707 -7 10 C-5.33248852 6.05860922 -2.77289351 3.2107188 0 0 Z " fill="#938893" transform="translate(241,256)"/>
</svg>
