<?xml version="1.0" encoding="UTF-8"?>
<svg version="1.1" xmlns="http://www.w3.org/2000/svg" width="512" height="512">
<path d="M0 0 C0.89187012 0.16097168 1.78374023 0.32194336 2.70263672 0.48779297 C40.33302689 7.57284201 77.37274821 23.54390896 107 48 C107.98226563 48.77988281 108.96453125 49.55976562 109.9765625 50.36328125 C124.69077232 62.3395305 138.68835208 75.97780868 149.82177734 91.37744141 C151.01016421 93.01399738 152.23017469 94.62261288 153.45703125 96.23046875 C175.98471839 126.19641762 189.77802906 162.22557379 196 199 C196.12455566 199.73186523 196.24911133 200.46373047 196.37744141 201.21777344 C197.12277249 205.79576257 197.63170102 210.37854572 198 215 C198.06171387 215.7528125 198.12342773 216.505625 198.18701172 217.28125 C199.16265549 230.20011924 199.05644895 243.12724254 198.8019104 256.07077026 C198.76737282 257.85334414 198.7372239 259.63600859 198.71151733 261.41873169 C198.67212489 263.94123097 198.61254917 266.46243915 198.546875 268.984375 C198.53729263 269.74900558 198.52771027 270.51363617 198.51783752 271.30143738 C198.34831841 276.52107238 198.34831841 276.52107238 196.76292419 278.70094299 C194.48202991 280.38167987 193.16275392 280.36323931 190.3449707 280.34057617 C189.40422195 280.34034958 188.46347321 280.34012299 187.49421692 280.33988953 C186.48163315 280.32440567 185.46904938 280.30892181 184.42578125 280.29296875 C182.86732735 280.28660149 182.86732735 280.28660149 181.27738953 280.28010559 C177.95549724 280.26329849 174.63420925 280.22564196 171.3125 280.1875 C169.06185771 280.17245582 166.81120593 280.15876695 164.56054688 280.14648438 C159.04015803 280.11338836 153.52012218 280.06316869 148 280 C147.85989502 281.22726807 147.71979004 282.45453613 147.57543945 283.71899414 C146.97390993 288.50812748 145.71091777 292.86460418 144.1875 297.4375 C143.89270752 298.32622803 143.59791504 299.21495605 143.29418945 300.13061523 C139.22247463 311.86983184 133.58311273 322.92221768 128 334 C127.3330345 335.33318387 126.6663189 336.66649284 126 338 C126.40311905 338.38535416 126.8062381 338.77070831 127.22157288 339.16773987 C131.41407474 343.18322539 135.57811868 347.22662671 139.72680664 351.28735352 C141.27860741 352.79892782 142.83751289 354.30324389 144.40356445 355.80004883 C146.65403388 357.95344758 148.87762978 360.13168985 151.09765625 362.31640625 C152.15533958 363.31215416 152.15533958 363.31215416 153.23439026 364.32801819 C153.87512985 364.96815353 154.51586945 365.60828888 155.17602539 366.26782227 C155.74672256 366.82075455 156.31741974 367.37368683 156.90541077 367.94337463 C158.67125691 371.26122562 157.97056836 373.44820491 157 377 C155.36460238 379.21194473 153.88930137 380.93423227 151.94873047 382.82763672 C151.16070793 383.63143013 151.16070793 383.63143013 150.35676575 384.45146179 C148.62497611 386.20954823 146.87229212 387.94489917 145.1171875 389.6796875 C143.90139386 390.89952566 142.68649185 392.12025308 141.47244263 393.34182739 C138.92811664 395.89498598 136.37328936 398.43701123 133.81054688 400.97167969 C130.53158936 404.21645278 127.28030964 407.48742252 124.03643608 410.76722527 C121.5336233 413.29175213 119.01665396 415.8017731 116.49521255 418.30768204 C115.29077148 419.50812964 114.09074663 420.71302552 112.89532089 421.92245102 C111.22021531 423.61285061 109.52697211 425.28273699 107.82763672 426.94873047 C107.34008408 427.4484285 106.85253143 427.94812653 106.35020447 428.46296692 C102.76791284 431.91656585 99.93450902 432.81532021 95 433 C93.00585937 432.00366211 93.00585937 432.00366211 91.34375 430.33984375 C90.67601562 429.69128418 90.00828125 429.04272461 89.3203125 428.37451172 C88.17175781 427.19912842 88.17175781 427.19912842 87 426 C86.0409158 425.05426918 85.07985292 424.11054225 84.1171875 423.16845703 C80.88505297 419.99248884 77.69153644 416.77917786 74.5 413.5625 C73.38044368 412.4379167 72.26065371 411.31356595 71.140625 410.18945312 C68.42438466 407.46230656 65.71131708 404.73204093 63 402 C59.35409856 403.40892727 55.99886884 405.06354377 52.58374023 406.9699707 C45.39682306 410.95372058 38.1082444 414.36384549 30.4375 417.3125 C29.63699219 417.62525879 28.83648437 417.93801758 28.01171875 418.26025391 C20.18603934 421.18086475 12.11334154 423.06981752 4 425 C4.01110306 425.58215775 4.02220612 426.16431549 4.03364563 426.76411438 C4.14412635 432.81451092 4.21961973 438.8646218 4.2746582 444.91577148 C4.29982755 447.17500442 4.33396593 449.43415574 4.37719727 451.69311523 C4.4377409 454.93754182 4.46618557 458.18089358 4.48828125 461.42578125 C4.51408768 462.43836502 4.5398941 463.45094879 4.56648254 464.49421692 C4.5668602 465.43496567 4.56723785 466.37571442 4.56762695 467.3449707 C4.57873001 468.17325882 4.58983307 469.00154694 4.60127258 469.85493469 C4 472 4 472 1.96174622 473.76667786 C-1.73053953 475.30420924 -5.02340809 475.42068411 -8.95556641 475.38818359 C-10.13449211 475.39606903 -10.13449211 475.39606903 -11.3372345 475.40411377 C-13.92554813 475.41727846 -16.51324302 475.40859013 -19.1015625 475.3984375 C-20.90327065 475.40045885 -22.704978 475.4033708 -24.50668335 475.40713501 C-28.277647 475.41155322 -32.04839714 475.405142 -35.81933594 475.39111328 C-40.65619652 475.37399706 -45.4925586 475.38388108 -50.32940102 475.40183067 C-54.04741181 475.41266115 -57.765304 475.40922599 -61.48331833 475.4014473 C-63.26713495 475.39944452 -65.0509623 475.40190727 -66.83476639 475.40888596 C-69.32454307 475.41649112 -71.81350667 475.40491106 -74.30322266 475.38818359 C-75.41137581 475.39729263 -75.41137581 475.39729263 -76.54191589 475.40658569 C-79.40493057 475.37088699 -81.50020328 475.31692418 -83.95402527 473.76094055 C-85.28348602 471.52273987 -85.39674171 470.03785525 -85.43237305 467.43676758 C-85.45216721 466.51603958 -85.47196136 465.59531158 -85.49235535 464.64668274 C-85.50194023 463.16061775 -85.50194023 463.16061775 -85.51171875 461.64453125 C-85.52966995 460.62775803 -85.54762115 459.6109848 -85.56611633 458.56340027 C-85.6203354 455.31314248 -85.65415259 452.0630325 -85.6875 448.8125 C-85.72066279 446.61000542 -85.75515147 444.40753037 -85.79101562 442.20507812 C-85.87606832 436.80351796 -85.94436898 431.40193894 -86 426 C-86.58182037 425.83853485 -87.16364075 425.6770697 -87.76309204 425.51071167 C-109.1624789 419.54903206 -109.1624789 419.54903206 -117.375 416.125 C-118.18388672 415.79765869 -118.99277344 415.47031738 -119.82617188 415.13305664 C-125.89116338 412.61852263 -131.68588251 409.69956116 -137.33349609 406.35009766 C-140.45872902 404.46667804 -140.45872902 404.46667804 -143.99099731 404.23509216 C-146.29898783 405.11383665 -147.41408724 406.08560121 -149.11279297 407.86743164 C-149.9842244 408.76825218 -149.9842244 408.76825218 -150.8732605 409.68727112 C-151.49000641 410.33832321 -152.10675232 410.98937531 -152.7421875 411.66015625 C-154.06859225 413.02449521 -155.39542855 414.38841472 -156.72265625 415.75195312 C-158.80437014 417.90817201 -160.88102737 420.06881888 -162.94970703 422.23754883 C-164.95068821 424.32913778 -166.96991409 426.40167665 -168.9921875 428.47265625 C-169.60488495 429.12573257 -170.2175824 429.7788089 -170.84884644 430.45167542 C-175.17777676 434.85532438 -175.17777676 434.85532438 -179.24121094 435.5703125 C-182.13643523 434.97179534 -183.17599129 434.53600942 -185.1484375 432.40234375 C-185.94507813 431.56993164 -185.94507813 431.56993164 -186.7578125 430.72070312 C-187.29148437 430.13224609 -187.82515625 429.54378906 -188.375 428.9375 C-189.4424545 427.79809697 -190.51280008 426.66139597 -191.5859375 425.52734375 C-192.10523331 424.97737732 -192.62452911 424.42741089 -193.15956116 423.86077881 C-194.95334412 422.0471715 -196.81152712 420.39217066 -198.75170898 418.73730469 C-202.80823071 415.21420376 -206.61420269 411.49869988 -210.38671875 407.67578125 C-211.05161819 407.00709518 -211.71651764 406.33840912 -212.40156555 405.64945984 C-214.49935735 403.53958511 -216.59383803 401.42647236 -218.6875 399.3125 C-221.45931253 396.51400183 -224.23448585 393.71889914 -227.01171875 390.92578125 C-227.63890305 390.29029861 -228.26608734 389.65481598 -228.91227722 389.00007629 C-231.48200844 386.41606552 -233.97953793 384.01596038 -236.85864258 381.77026367 C-239 380 -239 380 -240.25 376.75 C-239.64035961 367.60539412 -226.92025874 358.80806678 -220.5625 352.5 C-219.4379167 351.38044368 -218.31356595 350.26065371 -217.18945312 349.140625 C-214.46230656 346.42438466 -211.73204093 343.71131708 -209 341 C-210.11484438 337.47091282 -211.27639017 334.21667161 -213.1015625 330.99609375 C-213.50560303 330.26583984 -213.90964355 329.53558594 -214.32592773 328.78320312 C-214.75462158 328.00912109 -215.18331543 327.23503906 -215.625 326.4375 C-219.39260856 319.45826083 -222.62803175 312.41755888 -225.4375 305 C-225.75477051 304.16525146 -226.07204102 303.33050293 -226.39892578 302.47045898 C-228.01187522 298.09004156 -229.39392213 293.69601517 -230.60571289 289.1875 C-230.86888809 288.21167969 -231.13206329 287.23585938 -231.4032135 286.23046875 C-231.60015305 285.49441406 -231.79709259 284.75835937 -232 284 C-232.58215775 283.99413376 -233.16431549 283.98826752 -233.76411438 283.98222351 C-239.81498961 283.91836466 -245.86532924 283.83396496 -251.91577148 283.73754883 C-254.17481431 283.70426314 -256.43394103 283.67624267 -258.69311523 283.65356445 C-261.93770148 283.62008574 -265.18151633 283.56777282 -268.42578125 283.51171875 C-269.43836502 283.50532883 -270.45094879 283.4989389 -271.49421692 283.49235535 C-272.90534004 283.46266411 -272.90534004 283.46266411 -274.3449707 283.43237305 C-275.17325882 283.42126999 -276.00154694 283.41016693 -276.85493469 283.39872742 C-279.53419151 282.90070382 -280.42086953 282.203085 -282 280 C-282.40545654 278.11013794 -282.40545654 278.11013794 -282.44824219 275.95361328 C-282.47126404 275.14070831 -282.49428589 274.32780334 -282.51800537 273.49026489 C-282.52753235 272.6091806 -282.53705933 271.72809631 -282.546875 270.8203125 C-282.56719788 269.89773651 -282.58752075 268.97516052 -282.60845947 268.02462769 C-282.64873866 266.05935432 -282.68187887 264.09392384 -282.70849609 262.12841797 C-282.74898676 259.19832273 -282.81181634 256.26943647 -282.87890625 253.33984375 C-283.22617517 236.05033538 -282.98319443 218.74307223 -280.3125 201.625 C-280.13879883 200.49489502 -279.96509766 199.36479004 -279.78613281 198.20043945 C-272.18734743 151.19530131 -250.95382173 110.67059457 -220 75 C-219.35289062 74.22914062 -218.70578125 73.45828125 -218.0390625 72.6640625 C-214.68501295 68.70294516 -211.15646378 65.23482235 -207.19140625 61.88671875 C-205.66568432 60.57312928 -204.17541402 59.21770048 -202.71484375 57.83203125 C-188.78850101 44.63752105 -172.92411316 33.95306277 -156 25 C-155.14519043 24.5452832 -154.29038086 24.09056641 -153.40966797 23.62207031 C-129.68600089 11.19269533 -104.41725624 3.20681614 -78 -1 C-77.26120605 -1.12842285 -76.52241211 -1.2568457 -75.76123047 -1.38916016 C-51.4729847 -5.53282413 -24.13614486 -4.39752087 0 0 Z M-169 47 C-169.59039062 47.39509766 -170.18078125 47.79019531 -170.7890625 48.19726562 C-193.15154955 63.24515063 -213.20186438 82.45661436 -228 105 C-227.38817871 105.40613525 -226.77635742 105.81227051 -226.14599609 106.23071289 C-214.76878968 113.78762666 -203.40925763 121.36726047 -192.125 129.0625 C-191.25407715 129.65619385 -190.3831543 130.2498877 -189.48583984 130.86157227 C-188.64746582 131.43447998 -187.8090918 132.0073877 -186.9453125 132.59765625 C-186.13352539 133.14953613 -185.32173828 133.70141602 -184.48535156 134.27001953 C-182.73152527 135.49080667 -181.00090955 136.74527039 -179.28808594 138.02294922 C-178.40668945 138.67408691 -177.52529297 139.32522461 -176.6171875 139.99609375 C-175.43165283 140.8941272 -175.43165283 140.8941272 -174.22216797 141.81030273 C-172.09826191 143.20742591 -172.09826191 143.20742591 -169.828125 142.81347656 C-167.09530868 141.5974317 -165.91101975 139.69270141 -164.125 137.3125 C-134.32205362 99.76663127 -94.3340695 85.61915279 -48 79 C-48 55.9 -48 32.8 -48 9 C-90.8230485 9 -133.6199523 22.96464151 -169 47 Z M-36 9 C-36 32.1 -36 55.2 -36 79 C-27.09 80.32 -18.18 81.64 -9 83 C5.9787234 86.65957447 5.9787234 86.65957447 13 89 C15.08593614 86.33536079 17.16835174 83.66799 19.25 81 C19.88099609 80.19288574 20.51199219 79.38577148 21.16210938 78.55419922 C24.29311687 74.53523549 27.38954271 70.49995564 30.390625 66.3828125 C30.91624023 65.66480469 31.44185547 64.94679687 31.98339844 64.20703125 C32.96911682 62.85381066 33.94682047 61.49470252 34.91503906 60.12890625 C38.22856988 55.59086118 41.64866849 52.1562712 47.1171875 50.26953125 C56.42717217 48.93677411 63.11769789 51.42067058 71.3125 55.75 C76.04285453 59.71029681 79.20128528 64.94854148 80.40087891 71.03344727 C81.23950527 81.3571214 75.82939205 89.9739915 71.375 98.9375 C70.13094514 101.45663893 68.89367097 103.97816469 67.67544556 106.50990295 C66.92096878 108.07676788 66.15141498 109.63648264 65.36532593 111.18772888 C63.36025083 115.09884577 63.36025083 115.09884577 63.60742188 119.32592773 C65.92835742 122.11601452 68.5073608 124.61958225 71.125 127.125 C76.57240291 132.4394473 81.43815766 137.89457355 86 144 C94.81039335 138.48865262 103.46042158 132.74863795 112.08447266 126.95166016 C114.86712292 125.0889482 117.65741302 123.23831055 120.44966125 121.39004517 C123.0351671 119.67544463 125.61454299 117.95176516 128.19290161 116.22644043 C129.47978823 115.36793333 130.76908028 114.51302093 132.0607605 113.66174316 C133.88300912 112.45979643 135.69615805 111.24517963 137.5078125 110.02734375 C138.56629395 109.32343506 139.62477539 108.61952637 140.71533203 107.89428711 C141.46927246 107.26917236 142.22321289 106.64405762 143 106 C143 102.01788071 141.11681822 100.11762551 138.75 97.125 C138.30398438 96.55418701 137.85796875 95.98337402 137.3984375 95.39526367 C132.27814955 88.9427461 126.70398214 82.93577281 121 77 C120.14277344 76.10152344 119.28554688 75.20304687 118.40234375 74.27734375 C112.63158416 68.36025745 106.5319365 63.05971247 100 58 C99.46310547 57.58137695 98.92621094 57.16275391 98.37304688 56.73144531 C60.11758302 27.10651951 12.62576537 9 -36 9 Z M38.6875 74 C37.79140015 75.1607605 37.79140015 75.1607605 36.87719727 76.3449707 C34.91331117 78.89298183 32.95594186 81.44588631 31 84 C30.29681641 84.91700684 29.59363281 85.83401367 28.86914062 86.77880859 C26.72277969 89.57981929 24.5792845 92.38298866 22.4375 95.1875 C21.77129639 96.05955078 21.10509277 96.93160156 20.41870117 97.83007812 C18.60395168 100.21379479 16.79795402 102.6035953 15 105 C14.48066895 105.69174316 13.96133789 106.38348633 13.42626953 107.09619141 C10.8636656 110.22013847 10.8636656 110.22013847 10 114 C10.969375 114.391875 11.93875 114.78375 12.9375 115.1875 C16 117 16 117 16.9375 119.5 C17 122 17 122 16 125 C10.34264585 126.55577239 7.20333134 125.24281523 2 123 C-3.62065449 129.58492027 -9.02848116 136.28228508 -14.25 143.1875 C-18.70350199 149.07297924 -23.2769465 154.82866843 -28 160.5 C-33.76378705 167.42863854 -39.28449444 174.50937563 -44.72265625 181.6953125 C-46.93064881 184.60967696 -49.16786855 187.49748195 -51.43359375 190.3671875 C-71.40088076 212.63947811 -71.40088076 212.63947811 -82.625 239.0625 C-80.78347298 250.66412022 -74.66282116 259.82098332 -65.25 266.8125 C-54.4912212 273.85733503 -43.79260579 277.07853351 -31 276 C-24.92674064 274.38979867 -21.72591275 272.04916258 -18 267 C-16.82864361 264.81201729 -15.72447017 262.58737296 -14.671875 260.33984375 C-14.36610031 259.69059433 -14.06032562 259.04134491 -13.74528503 258.37242126 C-12.73962107 256.23075024 -11.74451804 254.08436697 -10.75 251.9375 C-10.0399915 250.41738863 -9.32978263 248.89737085 -8.61938477 247.37744141 C-3.25141852 235.85524955 1.92851311 224.25215106 7.05603027 212.62136841 C11.8985676 201.63821894 16.87982096 190.73144098 22 179.875 C22.62781462 178.54123913 23.25550259 177.20741865 23.88305664 175.87353516 C24.7746055 173.97895097 25.66617304 172.0843756 26.55784607 170.18984985 C27.37201246 168.45995406 28.18600951 166.72997857 29 165 C29.71349609 163.4855127 29.71349609 163.4855127 30.44140625 161.94042969 C31.64027132 159.38255265 32.82350197 156.8182222 34 154.25 C34.33257812 153.5472998 34.66515625 152.84459961 35.0078125 152.12060547 C36.13143837 149.63610163 37.00294498 147.5526743 36.98828125 144.80078125 C35.53811907 142.15839087 33.57702636 140.75326015 31.1875 138.9375 C29.87845703 137.93009766 29.87845703 137.93009766 28.54296875 136.90234375 C26.95460454 135.71412045 25.34279508 134.55591247 23.69921875 133.4453125 C22 132 22 132 21.625 128.9375 C22 126 22 126 24 124 C31.47803531 123.68178573 36.392692 128.54862891 42 133 C45.44735672 130.23554197 46.81220474 126.37714035 48.51171875 122.4296875 C48.84363724 121.67519318 49.17555573 120.92069885 49.51753235 120.14334106 C50.58081564 117.72340132 51.6346079 115.2994766 52.6875 112.875 C53.71975159 110.51133569 54.75407399 108.1486007 55.79031372 105.78668213 C56.47999338 104.21441851 57.16771592 102.64129495 57.85348511 101.06732178 C59.59785518 97.08652572 61.39506478 93.14447008 63.30322266 89.23925781 C63.67469925 88.47493439 64.04617584 87.71061096 64.4289093 86.92312622 C65.13496263 85.48087091 65.85082643 84.04335995 66.57829285 82.61178589 C68.5568311 78.56688989 69.48385809 75.5031226 69 71 C66.88229875 67.00506906 63.57793671 63.98794005 59.5 62.0625 C48.4634477 58.71211805 44.83349468 65.9849759 38.6875 74 Z M-127 118 C-127.83144531 118.62261719 -128.66289062 119.24523437 -129.51953125 119.88671875 C-161.16527296 144.45577491 -181.89139956 178.44472804 -187.6875 218.3125 C-187.92893994 221.16149133 -188.03257213 223.87973328 -188.01953125 226.73046875 C-188.01671143 227.53250732 -188.0138916 228.3345459 -188.01098633 229.16088867 C-188.00736084 229.76779541 -188.00373535 230.37470215 -188 231 C-175.71756951 231.23175984 -163.43565944 231.40941149 -151.15148735 231.51812172 C-145.44721092 231.57030022 -139.74443076 231.64105933 -134.04101562 231.75439453 C-128.53604587 231.86310096 -123.03251434 231.92285122 -117.52655411 231.94877243 C-115.42680333 231.96724202 -113.32713086 232.00331209 -111.22799301 232.05730057 C-100.16587608 232.88505184 -100.16587608 232.88505184 -90.4584198 228.85525513 C-88.89609029 226.26266996 -87.96509 223.857473 -87 221 C-85.42456055 218.69758606 -85.42456055 218.69758606 -83.87890625 216.7890625 C-83.34386475 216.11222412 -82.80882324 215.43538574 -82.25756836 214.73803711 C-81.6981958 214.04073486 -81.13882324 213.34343262 -80.5625 212.625 C-79.32397014 211.05721337 -78.08704842 209.48815526 -76.8515625 207.91796875 C-76.21766602 207.11278809 -75.58376953 206.30760742 -74.93066406 205.47802734 C-71.70789674 201.34157207 -68.57289738 197.14034439 -65.4375 192.9375 C-60.84382931 186.78804171 -56.23147967 180.65501962 -51.5625 174.5625 C-51.04091309 173.8816333 -50.51932617 173.2007666 -49.98193359 172.49926758 C-48.89826749 171.08516727 -47.81444235 169.67118883 -46.73046875 168.25732422 C-37.77174762 156.57104663 -28.85782893 144.86238406 -20.16625977 132.97558594 C-15.5034124 126.62316568 -10.69159533 120.39575299 -5.79248047 114.22387695 C-1.92293216 109.3156361 1.60349729 104.24621973 5 99 C-0.37996184 96.47588921 -5.55844427 95.03645282 -11.375 93.875 C-12.57382812 93.62169922 -12.57382812 93.62169922 -13.796875 93.36328125 C-52.35586769 85.43934586 -95.41504039 94.25081904 -127 118 Z M-235 115 C-258.8015166 147.80044616 -270 190.99601784 -270 231 C-246.9 231 -223.8 231 -200 231 C-199.01 223.08 -198.02 215.16 -197 207 C-193.15483167 190.37224507 -188.16263553 175.32796009 -179.89550781 160.40576172 C-177.75642884 156.91465821 -177.75642884 156.91465821 -177 153 C-178.41074537 151.7780863 -178.41074537 151.7780863 -180.328125 150.5859375 C-181.09157227 150.08336426 -181.85501953 149.58079102 -182.64160156 149.06298828 C-183.50237305 148.50595215 -184.36314453 147.94891602 -185.25 147.375 C-187.14631812 146.13094698 -189.04210792 144.88608844 -190.9375 143.640625 C-192.02675781 142.92712891 -193.11601562 142.21363281 -194.23828125 141.47851562 C-198.63441701 138.58957545 -203.00425954 135.66153479 -207.375 132.734375 C-209.01789643 131.6349176 -210.66080011 130.53547104 -212.30371094 129.43603516 C-214.78082615 127.77816624 -217.25765018 126.11987161 -219.73352051 124.46014404 C-222.0761002 122.89051132 -224.42063188 121.3238365 -226.765625 119.7578125 C-227.48137695 119.27721375 -228.19712891 118.79661499 -228.93457031 118.30145264 C-231.75127241 116.03277061 -231.75127241 116.03277061 -235 115 Z M150 115 C149.02289063 115.67160156 148.04578125 116.34320313 147.0390625 117.03515625 C145.56785052 118.04447812 144.09647973 119.05356853 142.625 120.0625 C141.81732178 120.61671631 141.00964355 121.17093262 140.17749023 121.74194336 C134.24119296 125.80610211 128.28087294 129.83272885 122.30859375 133.84375 C119.99853345 135.39764356 117.68867392 136.95183521 115.37884521 138.506073 C113.8376551 139.54164831 112.29538067 140.57561174 110.75201416 141.60794067 C108.55200505 143.07966866 106.35578156 144.55689905 104.16015625 146.03515625 C103.49729111 146.47641846 102.83442596 146.91768066 102.151474 147.37231445 C98.75809611 149.66473268 95.78936114 151.96411881 93 155 C93.6290625 156.093125 94.258125 157.18625 94.90625 158.3125 C107.71506652 181.19688145 113.63631993 204.99951918 116 231 C139.1 231 162.2 231 186 231 C186.06880711 218.30483687 186.06880711 218.30483687 184.8125 205.875 C184.68012939 204.99739014 184.54775879 204.11978027 184.41137695 203.21557617 C180.15055542 176.33723259 171.22262236 151.71857971 158.75 127.625 C158.33782227 126.82199463 157.92564453 126.01898926 157.50097656 125.19165039 C155.40217793 121.22172086 153.46142898 117.96920743 150 115 Z M57 130 C56.62939453 130.81637939 56.25878906 131.63275879 55.87695312 132.47387695 C54.08509609 136.42029403 52.29273022 140.36647952 50.5 144.3125 C50.16598175 145.04772888 49.8319635 145.78295776 49.48782349 146.54046631 C44.65150213 157.18424751 39.79879239 167.8203994 34.93261719 178.45056152 C32.28575828 184.23423395 29.64306081 190.01980789 27.00164795 195.80596924 C26.32493184 197.28826244 25.64804768 198.77047893 24.9710083 200.25262451 C22.9564923 204.66335803 20.94600382 209.07588544 18.94143677 213.4911499 C18.31797823 214.86288399 17.69321916 216.23402779 17.06710815 217.60455322 C16.20785848 219.48608328 15.35331996 221.36968113 14.5 223.25390625 C14.0153125 224.31939697 13.530625 225.3848877 13.03125 226.48266602 C11.8736388 228.8550581 11.8736388 228.8550581 12 231 C42.36 231 72.72 231 104 231 C104 193.65798866 86.74950873 159.37872605 61 133 C59.67736666 131.98589014 58.34554244 130.98351072 57 130 Z M-270 243 C-270 252.24 -270 261.48 -270 271 C-266.70257813 271.04898437 -263.40515625 271.09796875 -260.0078125 271.1484375 C-256.82400869 271.20240422 -253.64028189 271.25972864 -250.45654297 271.31738281 C-248.2391531 271.35573134 -246.02169976 271.39057371 -243.80419922 271.421875 C-240.62183911 271.46739826 -237.43991818 271.52541319 -234.2578125 271.5859375 C-233.26194122 271.59748871 -232.26606995 271.60903992 -231.24002075 271.62094116 C-230.31921722 271.64081085 -229.3984137 271.66068054 -228.44970703 271.68115234 C-227.23059128 271.70113785 -227.23059128 271.70113785 -225.98684692 271.7215271 C-224 272 -224 272 -222 274 C-221.34912109 275.83740234 -221.34912109 275.83740234 -220.7734375 278.0859375 C-220.55059082 278.92431152 -220.32774414 279.76268555 -220.09814453 280.62646484 C-219.85950684 281.53348145 -219.62086914 282.44049805 -219.375 283.375 C-214.40078559 301.43565482 -207.45041449 318.93103494 -197 334.5625 C-193.95081967 339.80327869 -193.95081967 339.80327869 -195 344 C-200.37507608 351.35431798 -207.48068686 357.59597278 -213.9375 364 C-215.01390654 365.07137887 -216.09008014 366.14299182 -217.16601562 367.21484375 C-219.77466745 369.81259638 -222.38644471 372.40717962 -225 375 C-220.60514612 380.25739529 -215.98296044 385.16979934 -211.125 390 C-210.45597656 390.67289063 -209.78695312 391.34578125 -209.09765625 392.0390625 C-205.81980713 395.31059592 -202.49936608 398.47860065 -198.9921875 401.50390625 C-194.79579347 405.12446576 -190.89227962 408.99492253 -187 412.9375 C-186.32066406 413.62134766 -185.64132813 414.30519531 -184.94140625 415.00976562 C-183.29191641 416.67087159 -181.6448332 418.33428513 -180 420 C-175.6023616 418.34562806 -172.88350196 415.01133622 -169.73046875 411.6796875 C-168.50010385 410.40942463 -167.26895973 409.13991613 -166.03710938 407.87109375 C-164.10681857 405.87271552 -162.18245057 403.86967202 -160.27124023 401.85302734 C-158.41935494 399.90420091 -156.54593873 397.97834518 -154.66796875 396.0546875 C-154.10418015 395.44849579 -153.54039154 394.84230408 -152.95951843 394.21774292 C-149.95022093 391.17003262 -148.66921208 390.0845903 -144.2800293 389.52978516 C-140.33669587 390.09508923 -137.99166217 391.38055166 -134.625 393.5 C-117.92640597 403.58515519 -100.04307502 410.5926507 -80.94897461 414.62011719 C-76.21207389 415.68188916 -76.21207389 415.68188916 -74 419 C-73.7215271 421.03117371 -73.7215271 421.03117371 -73.68115234 423.37963867 C-73.66109131 424.27259644 -73.64103027 425.1655542 -73.62036133 426.08557129 C-73.60900146 427.02026245 -73.5976416 427.95495361 -73.5859375 428.91796875 C-73.56829346 429.77990845 -73.55064941 430.64184814 -73.5324707 431.52990723 C-73.46941666 434.74891523 -73.42322098 437.96823563 -73.375 441.1875 C-73.25125 448.385625 -73.1275 455.58375 -73 463 C-51.55 463 -30.1 463 -8 463 C-7.78996772 448.32576011 -7.78996772 448.32576011 -7.61206055 433.65112305 C-7.57977897 431.81296744 -7.54640644 429.97483053 -7.51171875 428.13671875 C-7.50547485 427.18043579 -7.49923096 426.22415283 -7.49279785 425.2388916 C-7.47285767 424.3256311 -7.45291748 423.41237061 -7.43237305 422.47143555 C-7.42126999 421.67867722 -7.41016693 420.88591888 -7.39872742 420.06913757 C-6.90179332 417.49037081 -6.03478207 416.61130935 -4 415 C-1.94140625 414.2355957 -1.94140625 414.2355957 0.4375 413.67578125 C1.32268311 413.45631836 2.20786621 413.23685547 3.11987305 413.01074219 C4.07031494 412.78032227 5.02075684 412.54990234 6 412.3125 C24.26266003 407.58432257 43.0974048 399.98641161 58.6640625 389.14453125 C61.88571353 387.56602999 63.56289377 388.08711867 67 389 C69.39013672 390.83837891 69.39013672 390.83837891 71.6796875 393.2265625 C72.52660156 394.09410156 73.37351562 394.96164062 74.24609375 395.85546875 C75.54740234 397.22638672 75.54740234 397.22638672 76.875 398.625 C86.87850579 409.65909919 86.87850579 409.65909919 99 418 C104.00237575 413.0231333 109.00070483 408.04222846 113.99633789 403.05859375 C115.69366667 401.36627089 117.39189477 399.6748495 119.09106445 397.984375 C121.54359341 395.54407631 123.99279096 393.10047494 126.44140625 390.65625 C127.19273331 389.91008423 127.94406036 389.16391846 128.71815491 388.3951416 C132.23273309 384.880932 135.69147401 381.32450216 139.03491211 377.64648438 C139.89360146 376.7021051 139.89360146 376.7021051 140.76963806 375.73864746 C142.28882418 373.94684875 142.28882418 373.94684875 142 371 C140.54541958 369.11223284 140.54541958 369.11223284 138.5625 367.234375 C137.46615234 366.14576172 137.46615234 366.14576172 136.34765625 365.03515625 C135.57292969 364.28105469 134.79820312 363.52695312 134 362.75 C133.25621094 362.01136719 132.51242187 361.27273438 131.74609375 360.51171875 C127.53438266 356.35860538 123.22652067 352.36789328 118.7265625 348.52880859 C112.30624495 342.84384981 112.30624495 342.84384981 111.625 338.7421875 C112.13829264 334.98873505 113.96830757 332.35427146 116 329.25 C126.8723216 311.78415531 133.26444748 293.12336356 138.26049805 273.22802734 C139 271 139 271 141 269 C142.94888306 268.7215271 142.94888306 268.7215271 145.35791016 268.68115234 C146.70908432 268.65134781 146.70908432 268.65134781 148.08755493 268.62094116 C149.06155243 268.60938995 150.03554993 268.59783875 151.0390625 268.5859375 C152.53305069 268.55688828 152.53305069 268.55688828 154.05722046 268.5272522 C157.2463925 268.46735035 160.43560043 268.42102862 163.625 268.375 C165.78387013 268.33682999 167.94272488 268.29777884 170.1015625 268.2578125 C175.40096276 268.15997742 180.70019406 268.08049266 186 268 C186 259.75 186 251.5 186 243 C154.98 243 123.96 243 92 243 C90.68 251.91 89.36 260.82 88 270 C78.25425292 304.33160903 57.39314254 335.07237346 25.875 352.8125 C6.39179909 363.50068993 -13.72080513 370.01799692 -36 371 C-36.91523438 371.04125 -37.83046875 371.0825 -38.7734375 371.125 C-75.52491281 371.93051179 -109.76010632 357.87421262 -136.265625 332.66015625 C-152.42128871 316.94300341 -163.86320323 297.35542125 -170.3125 275.8125 C-170.54308105 275.06121826 -170.77366211 274.30993652 -171.01123047 273.53588867 C-173.80661994 263.47679982 -174.57022559 253.48501237 -176 243 C-207.02 243 -238.04 243 -270 243 Z M-164 243 C-164 273.95747109 -149.54284141 301.97758214 -128.7890625 324.2734375 C-105.45569404 347.08392936 -74.49321665 359.62513045 -42 360.25 C-8.17749778 359.56363581 23.33918515 346.31167869 47 322 C66.57512859 300.5714124 80 272.2976574 80 243 C55.58 243 31.16 243 6 243 C0.86949654 253.97866203 0.86949654 253.97866203 -4.10327148 265.0090332 C-8.49981912 274.77049412 -12.60487876 281.04534678 -22.7890625 285.2734375 C-36.13880178 289.66045429 -50.76727141 287.11510795 -63.1875 281.25 C-79.45321879 272.62874435 -88.23611213 260.2916636 -94 243 C-117.1 243 -140.2 243 -164 243 Z " fill="#000000" transform="translate(298,20)"/>
<path d="M0 0 C6.99997746 7.19997682 8.63384515 14.01101266 8.5234375 23.859375 C7.81730376 30.98639928 4.57924649 36.25249175 -0.5 41.1875 C-6.53367365 45.96698306 -12.80114305 47.59941967 -20.4375 47.1875 C-29.37583705 45.96806442 -34.22451791 42.34322284 -40.1484375 35.6640625 C-44.66363806 29.11384197 -44.41243759 21.90857835 -43.8125 14.25 C-42.4650463 7.7548521 -39.14905316 2.458452 -33.62890625 -1.1953125 C-22.0235309 -7.86506845 -11.36094449 -7.06903213 0 0 Z M-26.8125 9.25 C-31.00818102 13.89926816 -32.19061653 16.78371861 -32.08203125 22.93359375 C-31.64946073 26.6511926 -30.3414763 28.53135048 -27.8125 31.25 C-23.97207452 33.99911151 -20.94162087 35.25 -16.1875 35.25 C-11.40848489 33.83399552 -8.18626378 31.85272441 -4.9375 28.0625 C-3.33340264 24.05225661 -3.1288691 20.50954636 -3.8125 16.25 C-5.81391613 12.39012604 -7.9069825 9.25553601 -11.8125 7.25 C-17.57453595 5.82877125 -21.77834448 5.73779848 -26.8125 9.25 Z " fill="#000000" transform="translate(273.8125,236.75)"/>
</svg>
