<?xml version="1.0" encoding="UTF-8"?>
<svg version="1.1" xmlns="http://www.w3.org/2000/svg" width="512" height="512">
<path d="M0 0 C2.37650988 -0.00542745 4.7530164 -0.01255359 7.1295166 -0.02124023 C13.55298605 -0.03940122 19.97619715 -0.03243607 26.39967084 -0.01972389 C30.41789993 -0.01258698 34.43609641 -0.01396345 38.45432854 -0.01768494 C39.12351527 -0.01829787 39.79270201 -0.0189108 40.48216714 -0.01954231 C41.84202943 -0.02082134 43.20189172 -0.02211819 44.56175398 -0.02343267 C57.28143325 -0.03481 70.00099677 -0.02176921 82.72065704 -0.00023121 C93.6124946 0.01764133 104.5041616 0.01452892 115.39599609 -0.00390625 C128.07489367 -0.0253564 140.75369011 -0.03371594 153.4326033 -0.0214572 C154.78687058 -0.02018313 156.14113788 -0.01892564 157.4954052 -0.01768494 C158.49463831 -0.01675928 158.49463831 -0.01675928 159.51405795 -0.01581493 C164.18738161 -0.01237473 168.86062119 -0.01835914 173.53393745 -0.02760315 C179.83372005 -0.03919524 186.13318189 -0.03107419 192.43292999 -0.00802612 C194.73868974 -0.00275725 197.04447669 -0.00422141 199.35022545 -0.01307678 C216.54628761 -0.07300849 229.87279076 0.94015247 243.15795898 13.01757812 C243.90045898 13.84257812 244.64295898 14.66757813 245.40795898 15.51757812 C246.64545898 16.84789062 246.64545898 16.84789062 247.90795898 18.20507812 C256.29522167 28.47087599 257.70564419 39.33536099 257.68643188 52.11521912 C257.69143835 53.50719672 257.69731518 54.89917142 257.70398462 56.29114205 C257.71975617 60.10627039 257.72321373 63.92132502 257.72463322 67.73648202 C257.72833224 71.85434646 257.74349023 75.9721707 257.75724792 80.0900116 C257.7795088 87.2211763 257.79452914 94.35232668 257.80461502 101.4835186 C257.81920796 111.79398721 257.84474653 122.10440592 257.87294631 132.41484524 C257.91840311 149.14333087 257.95502252 165.87182369 257.98608398 182.6003418 C258.01627407 198.84937807 258.05062646 215.09839677 258.09057617 231.34741211 C258.09426849 232.85009928 258.09426849 232.85009928 258.09803541 234.38314378 C258.1104101 239.40889745 258.12286662 244.43465091 258.13536382 249.46040428 C258.23891497 291.14610443 258.32812373 332.83182624 258.40795898 374.51757812 C258.80816757 373.80051193 259.20837616 373.08344574 259.62071228 372.34465027 C261.1259181 369.64888079 262.63204848 366.95363049 264.13877869 364.25871277 C265.10335071 362.53285143 266.06688386 360.8064096 267.03039551 359.07995605 C271.30324385 351.43960661 275.57425622 343.82184008 280.40795898 336.51757812 C280.8165918 335.89367187 281.22522461 335.26976562 281.64624023 334.62695312 C286.69941813 327.75046361 296.14035051 323.10045886 304.40795898 321.51757812 C315.35149536 320.375276 325.30124998 322.20402154 334.28295898 328.76757812 C341.47612624 334.89412745 347.5001415 342.8186625 348.63549805 352.44726562 C348.79601493 354.619796 348.87184645 356.7770111 348.90795898 358.95507812 C348.92648926 359.6343335 348.94501953 360.31358887 348.96411133 361.01342773 C348.83303902 371.8705837 343.25781774 381.04704332 337.78295898 390.08007812 C336.53248984 392.17667898 335.28380843 394.27434706 334.03686523 396.37304688 C333.42343262 397.40349121 332.81 398.43393555 332.17797852 399.49560547 C329.16168134 404.64536084 326.31454262 409.88904001 323.5168457 415.16040039 C321.71886918 418.47862677 320.6035212 420.38720332 317.40795898 422.51757812 C313.91175436 423.0603357 310.57080864 423.19278115 307.47045898 421.39257812 C305.96227087 418.73106969 305.65649466 416.56945 305.40795898 413.51757812 C306.41967773 410.60742188 306.41967773 410.60742188 308.09545898 407.45507812 C308.40290039 406.86927979 308.7103418 406.28348145 309.02709961 405.67993164 C312.02955385 400.03736349 315.23493838 394.50279427 318.40795898 388.95507812 C318.92543701 388.04886719 319.44291504 387.14265625 319.97607422 386.20898438 C322.18762078 382.3470979 324.40707032 378.49745436 326.73608398 374.70507812 C330.96045686 367.56142317 332.90816056 361.84012499 331.40795898 353.51757812 C329.2575205 346.60222067 325.47972263 343.1716047 319.15795898 339.76757812 C313.9803256 338.04170033 309.35745411 337.37881653 304.16186523 339.38476562 C302.8008277 340.06903037 301.45566464 340.78648784 300.13452148 341.54492188 C298.40795898 342.51757812 298.40795898 342.51757812 295.40795898 343.51757812 C294.33534451 345.28958526 294.33534451 345.28958526 293.40795898 347.51757812 C291.14484584 351.67912659 288.83545195 355.81521108 286.53295898 359.95507812 C286.19749054 360.55882263 285.86202209 361.16256714 285.51638794 361.78460693 C280.70803502 370.43533181 275.84910347 379.05535383 270.91186523 387.63330078 C268.15499029 392.43096723 265.44033047 397.24897912 262.76342773 402.09179688 C262.14282471 403.21183105 261.52222168 404.33186523 260.8828125 405.48583984 C259.68424691 407.65265408 258.49041729 409.82209752 257.30224609 411.99462891 C250.31525884 424.61027827 250.31525884 424.61027827 245.40795898 429.51757812 C241.49962874 429.89337911 239.21807371 430.07079618 235.91967773 427.81835938 C233.37914824 425.49118694 231.48047164 423.18669473 229.47045898 420.39257812 C228.69702148 419.34714844 227.92358398 418.30171875 227.12670898 417.22460938 C225.67349521 415.24887333 224.22776511 413.26834258 222.79077148 411.28076172 C221.03633924 408.86593656 219.2550721 406.47265768 217.47045898 404.08007812 C216.92204346 403.31099121 216.37362793 402.5419043 215.80859375 401.74951172 C211.20896867 395.64210906 205.65689042 391.488718 197.99316406 390.07080078 C191.78656034 389.54032183 186.41521372 392.01337368 181.40795898 395.51757812 C176.15361596 401.01239451 175.01556225 406.33358521 175.15014648 413.69726562 C175.98108177 422.78719409 183.26499617 429.64834334 188.77368164 436.47705078 C191.71273008 440.14669028 194.58850984 443.86554851 197.47045898 447.58007812 C198.06906738 448.35013184 198.66767578 449.12018555 199.28442383 449.91357422 C202.67133344 454.27214582 206.04594355 458.63978135 209.40795898 463.01757812 C210.6088168 464.57889243 211.80969147 466.14019382 213.01098633 467.70117188 C214.04597204 469.04690653 215.08000523 470.39337386 216.11352539 471.74023438 C217.97889416 474.16881716 219.84930521 476.5934507 221.72045898 479.01757812 C222.30762695 479.78392578 222.89479492 480.55027344 223.49975586 481.33984375 C229.00844904 488.46022316 233.61509118 493.95795987 242.65795898 496.39257812 C249.47801017 496.61991316 255.63761674 494.82947394 260.83886719 490.26708984 C264.30069037 486.40721355 266.54097395 481.68918089 268.97045898 477.14257812 C270.19912933 474.89751476 271.42830825 472.65272967 272.65795898 470.40820312 C273.27799805 469.26673828 273.89803711 468.12527344 274.53686523 466.94921875 C277.46918092 461.57126607 280.46492224 456.22985424 283.47045898 450.89257812 C283.99389893 449.95236816 284.51733887 449.0121582 285.05664062 448.04345703 C292.90122665 434.08260275 292.90122665 434.08260275 297.40795898 432.39257812 C300.97935526 432.5413863 302.60353382 433.33635855 305.40795898 435.51757812 C307.5091001 438.66928981 307.73436574 439.74118779 307.0769043 443.36669922 C305.57489839 448.19614157 302.8148602 452.48191632 300.28295898 456.83007812 C299.66275879 457.91224609 299.04255859 458.99441406 298.40356445 460.109375 C297.08710093 462.40386768 295.76665258 464.69561955 294.44116211 466.98486328 C292.74109228 469.92816273 291.07132557 472.887346 289.41293335 475.85429382 C288.42985917 477.61182814 287.44160654 479.36633951 286.45141602 481.11987305 C285.20588886 483.32577804 283.96688707 485.53538495 282.7355957 487.74926758 C277.91391209 496.20228584 272.62200851 504.56146102 263.65795898 509.01757812 C262.75561523 509.48164063 261.85327148 509.94570313 260.92358398 510.42382812 C252.40869477 514.12595387 239.5689955 514.17989257 230.84545898 510.95507812 C228.54858398 509.80664062 228.54858398 509.80664062 226.40795898 508.51757812 C225.70155273 508.1128125 224.99514648 507.70804687 224.26733398 507.29101562 C216.57246307 502.11496936 211.53627084 494.12917212 206.10717773 486.77490234 C202.86833928 482.47227299 199.4416937 478.31710916 196.01416016 474.1640625 C192.40795898 469.73206513 192.40795898 469.73206513 192.40795898 467.51757812 C191.76638544 467.51871729 191.1248119 467.51985645 190.46379673 467.52103013 C152.4268839 467.58818518 114.38997984 467.63964833 76.35301984 467.67077411 C71.78441873 467.67452617 67.21581773 467.67840914 62.6472168 467.68237305 C61.7377024 467.68315998 60.82818799 467.68394691 59.89111255 467.68475769 C45.17033551 467.69780652 30.44959367 467.72145749 15.7288375 467.74903651 C0.62052562 467.77710525 -14.48776785 467.79375749 -29.59610474 467.79984361 C-38.91644181 467.803957 -48.23667938 467.81694221 -57.55698581 467.84132753 C-63.95093942 467.85720283 -70.34484169 467.86197442 -76.73881356 467.85808226 C-80.42610581 467.8561635 -84.11322436 467.85907529 -87.80048561 467.87519455 C-91.80394205 467.89256768 -95.80703065 467.88652493 -99.81051636 467.87834167 C-100.96812717 467.8870802 -102.12573799 467.89581872 -103.31842792 467.90482205 C-116.70161799 467.83096422 -128.59153198 463.58664375 -138.40454102 454.26757812 C-148.70824543 443.263443 -152.05870135 431.85152519 -151.97972107 417.02008057 C-151.98510661 415.79634853 -151.99049214 414.5726165 -151.99604088 413.31180167 C-152.0078134 409.94077863 -152.00627719 406.57025416 -151.99887407 403.19925165 C-151.99412383 399.55356754 -152.00666871 395.90793529 -152.01689148 392.26226807 C-152.0340498 385.12944565 -152.03492551 377.99671144 -152.02967858 370.86387375 C-152.02562937 365.06235442 -152.02708934 359.26086106 -152.03242683 353.45934296 C-152.03317526 352.6321316 -152.03392368 351.80492025 -152.03469478 350.95264189 C-152.03622634 349.27187746 -152.03776469 347.59111304 -152.03930975 345.91034862 C-152.05302457 330.16285628 -152.04760472 314.41541367 -152.03612453 298.66792247 C-152.02619775 284.28347871 -152.03912504 269.89916369 -152.06305873 255.51473978 C-152.0874843 240.7224799 -152.09704883 225.93027988 -152.090406 211.13800025 C-152.08692087 202.84226981 -152.08909878 194.54663828 -152.10665703 186.25092316 C-152.12142252 179.1874009 -152.12195818 172.12404717 -152.10458612 165.06052807 C-152.09610846 161.46174512 -152.0938463 157.86326266 -152.10923767 154.26449585 C-152.24328525 120.47716053 -142.49331157 105.37876698 -119.25115967 81.93515015 C-117.50584112 80.17834534 -115.76008233 78.42197781 -114.01391602 76.66601562 C-113.12269295 75.76946888 -112.23146988 74.87292213 -111.31324005 73.94920731 C-107.56441589 70.1792334 -103.81458757 66.41027268 -100.06084824 62.6451931 C-94.729914 57.29802896 -89.4076696 51.94253887 -84.09715152 46.57509553 C-79.87766297 42.31196103 -75.6442954 38.06286913 -71.40610504 33.81831741 C-69.62064821 32.0261848 -67.83941813 30.22982998 -66.06270599 28.42902756 C-46.81534986 8.93553068 -46.81534986 8.93553068 -36.59204102 4.51757812 C-35.78534753 4.16832905 -34.97865404 3.81907997 -34.1475153 3.45924759 C-23.04511396 -0.67075474 -11.68414065 -0.0449168 0 0 Z M-20.77954102 23.76757812 C-25.66742301 31.18367495 -26.02233843 37.89188168 -25.99829102 46.54101562 C-26.01454529 48.25304672 -26.01454529 48.25304672 -26.03112793 49.99966431 C-26.06524627 53.63069362 -26.0809498 57.26140997 -26.09204102 60.89257812 C-26.10668083 65.67152155 -26.14049689 70.44977506 -26.18579102 75.22851562 C-26.18276978 76.31111664 -26.17974854 77.39371765 -26.17663574 78.50912476 C-26.31114735 92.27177944 -30.98580216 103.37964616 -40.36938477 113.44726562 C-50.54199247 122.92262957 -63.44599613 126.13031884 -77.00610352 125.98632812 C-78.14179779 125.99337769 -79.27749207 126.00042725 -80.44760132 126.00769043 C-84.03764957 126.02953638 -87.62694668 126.02676614 -91.21704102 126.01757812 C-95.9596277 126.00547644 -100.70111266 126.01934052 -105.44360352 126.04882812 C-106.51365631 126.03750854 -107.58370911 126.02618896 -108.68618774 126.01452637 C-116.24273875 126.06488202 -123.71134792 127.02522838 -129.53677368 132.2677002 C-133.71986816 136.80612336 -135.83676311 141.31403062 -135.85489655 147.55024815 C-135.86257884 148.54557074 -135.87026113 149.54089334 -135.87817621 150.56637722 C-135.87644325 151.65254784 -135.87471028 152.73871846 -135.8729248 153.85780334 C-135.87886705 155.0174211 -135.88480929 156.17703886 -135.89093161 157.37179655 C-135.90527425 160.58681535 -135.91064883 163.80170382 -135.91212654 167.01674974 C-135.91583373 170.48593237 -135.93093166 173.95506894 -135.94439697 177.42422485 C-135.97154232 185.00919692 -135.98361025 192.5941478 -135.99241829 200.17916036 C-135.99794783 204.91830279 -136.00642349 209.65743709 -136.01542664 214.39657402 C-136.03981124 227.52592614 -136.06040868 240.65527176 -136.06717682 253.78464603 C-136.06761595 254.62472089 -136.06805508 255.46479575 -136.06850752 256.33032742 C-136.06894408 257.17238158 -136.06938063 258.01443575 -136.06983042 258.8820067 C-136.07071734 260.58824861 -136.07161047 262.29449052 -136.07250977 264.00073242 C-136.07295263 264.8470824 -136.07339548 265.69343238 -136.07385176 266.56542932 C-136.08174231 280.26937245 -136.11663393 293.97310252 -136.16322881 307.6769634 C-136.21071539 321.75714261 -136.23558329 335.83721508 -136.23791265 349.91747564 C-136.23974307 357.81870371 -136.25116878 365.71965432 -136.28755188 373.62080574 C-136.31843493 380.3511451 -136.32854782 387.08112129 -136.31207567 393.81151808 C-136.30429008 397.24208963 -136.30598304 400.67193078 -136.33419037 404.10241127 C-136.35967264 407.83171922 -136.34785521 411.55917065 -136.32702637 415.28846741 C-136.34313918 416.35902298 -136.35925199 417.42957854 -136.37585306 418.53257519 C-136.24460471 428.62615896 -132.55150231 436.9249811 -125.34204102 444.01757812 C-117.53972705 450.91264628 -108.44444551 452.10524877 -98.41793823 451.99859619 C-97.22924735 452.00201389 -96.04055647 452.00543159 -94.81584466 452.00895286 C-91.54314297 452.01437189 -88.27108634 452.00198847 -84.99846077 451.98184061 C-81.45940901 451.96447676 -77.92038429 451.97041859 -74.38130188 451.97344971 C-68.25850273 451.97554146 -62.13587482 451.9630509 -56.01311874 451.94049835 C-47.16080213 451.90791306 -38.30856784 451.89756468 -29.45619775 451.89254639 C-15.09192676 451.88380395 -0.72774692 451.85721697 13.63647461 451.81933594 C27.58536322 451.78258859 41.53422702 451.75429018 55.4831543 451.73730469 C56.34376878 451.73625379 57.20438327 451.7352029 58.09107699 451.73412016 C62.40876708 451.7288998 66.72645735 451.72384502 71.04414773 451.71887255 C106.83214977 451.67744326 142.62004595 451.60702354 178.40795898 451.51757812 C177.0542542 448.74124296 175.64245301 446.37127101 173.72827148 443.94335938 C173.21135742 443.27498047 172.69444336 442.60660156 172.16186523 441.91796875 C171.08834993 440.54196412 170.01032025 439.16946785 168.92749023 437.80078125 C162.70187586 429.71366183 159.55680111 421.92960854 158.84545898 411.76757812 C158.71977539 410.011875 158.71977539 410.011875 158.59155273 408.22070312 C158.5309668 407.32867187 158.47038086 406.43664062 158.40795898 405.51757812 C157.57651367 405.49179687 156.74506836 405.46601563 155.88842773 405.43945312 C154.80174805 405.38273437 153.71506836 405.32601563 152.59545898 405.26757812 C151.51651367 405.22117187 150.43756836 405.17476563 149.32592773 405.12695312 C146.40795898 404.51757812 146.40795898 404.51757812 144.54077148 402.66210938 C143.01648856 399.77648411 143.06553522 397.73636154 143.40795898 394.51757812 C145.40795898 391.51757812 145.40795898 391.51757812 148.40795898 390.51757812 C150.40904582 390.48055905 152.41024705 390.44576934 154.41162109 390.4309082 C161.29842073 390.52972268 161.29842073 390.52972268 167.50952148 388.10742188 C168.87292227 386.34535394 168.87292227 386.34535394 170.03686523 384.43164062 C173.7069442 379.30816857 181.04610525 375.94889192 187.16186523 374.76757812 C198.69573783 373.48380796 209.25959899 374.57945255 218.97045898 381.39257812 C225.61409598 386.98339833 230.88513601 394.38159371 235.77709961 401.51367188 C236.94416931 403.21215984 238.17147659 404.86893494 239.40795898 406.51757812 C240.06795898 406.51757812 240.72795898 406.51757812 241.40795898 406.51757812 C241.49950826 360.04455809 241.56999455 313.57154759 241.6122203 267.09845516 C241.61722315 261.61226749 241.62240043 256.12607999 241.62768555 250.63989258 C241.62873479 249.54768837 241.62978403 248.45548415 241.63086507 247.33018284 C241.64827176 229.64381894 241.67981092 211.95750702 241.71657017 194.27117396 C241.7539722 176.12426461 241.77619328 157.97738249 241.78431296 139.83043617 C241.78980225 128.63219171 241.80714171 117.4340942 241.83962485 106.23589497 C241.8607636 98.55756262 241.86716046 90.87930627 241.86196449 83.20094693 C241.85940173 78.77047319 241.86333889 74.3402563 241.88478088 69.90982819 C241.90427966 65.85124344 241.90520757 61.7930877 241.89155456 57.734483 C241.88986774 56.26864424 241.8949139 54.80277845 241.90749171 53.33699269 C242.00145729 41.70735236 240.26724412 33.88774082 232.26733398 25.30664062 C223.3213779 16.698977 213.51828034 15.36082754 201.45777893 15.38386536 C200.57947873 15.3815998 199.70117852 15.37933424 198.79626316 15.37700003 C195.86546399 15.37069093 192.93471144 15.3714874 190.00390625 15.37231445 C187.89765361 15.36932108 185.79140152 15.36591814 183.68515015 15.36213684 C177.97239685 15.35331195 172.25965854 15.35095939 166.54689908 15.35032105 C162.9766628 15.34960983 159.40643033 15.34747417 155.83619499 15.34482384 C143.37793613 15.33557627 130.91968796 15.33148832 118.46142578 15.33227539 C106.8524426 15.33287642 95.24350585 15.32231813 83.63453442 15.30653173 C73.66237404 15.2934548 63.69022884 15.28809154 53.71805996 15.2887308 C47.76434536 15.28898569 41.81067206 15.28613923 35.85696602 15.27555275 C30.25831041 15.26586895 24.65973557 15.26579457 19.06107712 15.27306938 C17.00841974 15.27411478 14.95575733 15.27175498 12.9031086 15.26570892 C10.09701856 15.25797996 7.29120682 15.26263982 4.48512268 15.27033997 C3.67664637 15.2651964 2.86817005 15.26005284 2.03519446 15.25475341 C-6.95663753 15.30912467 -14.29490573 17.09766755 -20.77954102 23.76757812 Z M-44.86329651 30.66184998 C-45.56304596 31.3587796 -46.26279541 32.05570923 -46.98374939 32.77375793 C-47.75626541 33.54829819 -48.52878143 34.32283844 -49.32470703 35.12084961 C-50.13439941 35.92878967 -50.9440918 36.73672974 -51.77832031 37.56915283 C-54.4700614 40.25647113 -57.15810294 42.94745644 -59.84594727 45.63867188 C-61.70525186 47.49730355 -63.56470493 49.3557867 -65.42430115 51.21412659 C-69.32763899 55.11564263 -73.22885786 59.0192682 -77.12890625 62.92407227 C-81.64464142 67.44525008 -86.16396797 71.96281397 -90.68517739 76.478517 C-95.02567898 80.81394276 -99.36337471 85.15216436 -103.69987297 89.49159431 C-105.54961545 91.34200649 -107.40010823 93.19166894 -109.25134468 95.04058647 C-111.83290632 97.61962411 -114.41126668 100.20181898 -116.98876953 102.78491211 C-117.76330978 103.55742813 -118.53785004 104.32994415 -119.33586121 105.12586975 C-120.03279083 105.8256192 -120.72972046 106.52536865 -121.44776917 107.24632263 C-122.36392675 108.16304575 -122.36392675 108.16304575 -123.29859257 109.09828854 C-124.70430443 110.32072073 -124.70430443 110.32072073 -124.59204102 111.51757812 C-117.20219417 111.4793331 -109.81283434 111.4197022 -102.4233799 111.33367538 C-98.99113842 111.29437039 -95.55914696 111.26209994 -92.12670898 111.24658203 C-88.1695141 111.22836974 -84.21301164 111.17834439 -80.25610352 111.12695312 C-79.03903717 111.12572449 -77.82197083 111.12449585 -76.56802368 111.12322998 C-65.66561413 110.93797351 -57.56347236 108.34892398 -49.57250977 100.81054688 C-44.40049321 94.82243303 -41.50614843 87.71808074 -41.38671875 79.8527832 C-41.36677353 78.69180618 -41.34682831 77.53082916 -41.32627869 76.33467102 C-41.30956619 75.08147568 -41.2928537 73.82828033 -41.27563477 72.53710938 C-41.24446312 70.61242073 -41.24446312 70.61242073 -41.21266174 68.64884949 C-41.15752195 65.24094998 -41.10807713 61.83299071 -41.05981445 58.42498779 C-41.00954023 54.94603165 -40.9538851 51.46716205 -40.89868164 47.98828125 C-40.79119913 41.16478862 -40.68973225 34.34121777 -40.59204102 27.51757812 C-42.44885023 27.51757812 -43.62306627 29.42238485 -44.86329651 30.66184998 Z " fill="#000000" transform="translate(157.592041015625,-0.517578125)"/>
<path d="M0 0 C0.94627315 -0.00384115 1.89254631 -0.00768229 2.8674944 -0.01163983 C3.90911015 -0.01077335 4.9507259 -0.00990687 6.02390575 -0.00901413 C7.12887832 -0.01198525 8.23385089 -0.01495637 9.37230748 -0.01801753 C13.09408702 -0.02672505 16.81583447 -0.02821451 20.53762341 -0.02970505 C23.19824915 -0.03433174 25.85887194 -0.03933544 28.51949596 -0.04475021 C35.76122408 -0.05833645 43.00294667 -0.06435867 50.24468541 -0.06876087 C54.76566927 -0.07152274 59.28665099 -0.07575999 63.8076334 -0.08026505 C76.32270994 -0.09245797 88.83778477 -0.10275732 101.35286713 -0.10614014 C102.15397504 -0.1063597 102.95508295 -0.10657927 103.78046687 -0.10680549 C104.58350071 -0.10702377 105.38653456 -0.10724204 106.21390277 -0.10746694 C107.84117814 -0.1079104 109.46845351 -0.10835697 111.09572887 -0.10880661 C111.90291511 -0.10902804 112.71010135 -0.10924947 113.54174777 -0.10947761 C126.62254567 -0.11342605 139.70328788 -0.13088137 152.78406427 -0.15416613 C166.21099779 -0.17787435 179.63790335 -0.19034174 193.06485814 -0.19150805 C200.60477938 -0.1924251 208.14462804 -0.19818488 215.6845293 -0.21632767 C222.10466412 -0.2317215 228.52470394 -0.23685338 234.9448537 -0.22858956 C238.2205562 -0.22468049 241.49602716 -0.22725425 244.77171421 -0.23964691 C248.32322908 -0.2522969 251.87425024 -0.24652703 255.42576122 -0.23606491 C256.4606848 -0.24412132 257.49560838 -0.25217772 258.56189328 -0.26047826 C263.91146061 -0.22352935 267.82850877 0.03829989 272.41530895 3.13142776 C273.96117771 6.22316528 273.70890417 8.72572329 273.41530895 12.13142776 C272.08182907 14.32666492 272.08182907 14.32666492 269.41530895 16.13142776 C265.76155471 16.73819468 262.13472415 16.66599713 258.43848705 16.63263321 C257.30604205 16.63816761 256.17359704 16.643702 255.00683552 16.64940411 C251.19802975 16.66305789 247.38987389 16.64801504 243.58108044 16.63313675 C240.85631735 16.63471096 238.13157818 16.6422638 235.40682507 16.64950943 C228.76612001 16.66345423 222.1256049 16.65587689 215.48490887 16.64083385 C207.75542373 16.62398953 200.02598611 16.62718196 192.29648829 16.63092793 C178.50801312 16.63680867 164.71962922 16.62262602 150.93117809 16.5979805 C137.5437735 16.57405442 124.15649085 16.56697776 110.76906872 16.57747269 C96.19836733 16.58887473 81.62772237 16.59082117 67.05702168 16.57637459 C65.50421529 16.57484871 63.95140889 16.57332836 62.39860249 16.57181358 C61.63454603 16.57105577 60.87048957 16.57029795 60.08327989 16.56951718 C54.69201432 16.56476918 49.3007739 16.5666294 43.90950871 16.57087898 C37.34253455 16.57579897 30.77567581 16.56985113 24.20872813 16.54998469 C20.85641533 16.54009398 17.50442601 16.53662823 14.15208149 16.5428772 C10.52291273 16.5487957 6.89426856 16.53639054 3.26514721 16.51910782 C2.19882153 16.52511786 1.13249586 16.53112791 0.03385729 16.53732008 C-0.93454964 16.52888014 -1.90295656 16.5204402 -2.90070915 16.5117445 C-3.73886195 16.51071537 -4.57701475 16.50968624 -5.44056612 16.50862592 C-8.11565094 16.03802038 -8.9687306 15.28524323 -10.58469105 13.13142776 C-11.52219105 9.75642776 -11.52219105 9.75642776 -11.58469105 6.13142776 C-8.49880045 1.06175036 -5.73364208 0.00872814 0 0 Z " fill="#000000" transform="translate(118.58469104766846,230.86857223510742)"/>
<path d="M0 0 C0.68254868 -0.00709439 1.36509736 -0.01418877 2.06832933 -0.02149814 C4.35500466 -0.03909798 6.63998451 -0.02096579 8.92663574 -0.00291443 C10.56604283 -0.00805255 12.20544441 -0.01533303 13.84483337 -0.02459717 C18.29740993 -0.04313325 22.74938875 -0.03015892 27.20194054 -0.01050687 C31.85924364 0.00586285 36.51650838 -0.00293092 41.17382812 -0.00802612 C48.99533654 -0.01254896 56.81660595 0.00333452 64.63806152 0.03126526 C73.68362377 0.06331806 82.72875492 0.06330208 91.77434778 0.04605049 C100.47221443 0.0301924 109.16992287 0.03691432 117.86778259 0.0539875 C121.57108261 0.06086413 125.27425606 0.0598193 128.97755432 0.05244255 C133.33777267 0.04478719 137.69749981 0.05688103 142.05763435 0.08429146 C143.65882471 0.0911843 145.26006086 0.09126362 146.86124992 0.08407593 C149.04533841 0.07540061 151.22790423 0.09130168 153.41186523 0.11352539 C155.2458147 0.11773577 155.2458147 0.11773577 157.11681366 0.12203121 C160.81484669 0.72796079 162.01094603 1.63356879 164.20593262 4.62818909 C164.67511944 8.3816837 164.73729643 10.66667362 162.89343262 14.00318909 C159.60129963 17.17339122 156.02461516 16.75983233 151.69070435 16.77536011 C151.02604987 16.7790368 150.36139539 16.78271348 149.67659986 16.78650159 C147.44499595 16.79753233 145.21343861 16.80138118 142.98181152 16.80519104 C141.38358919 16.81145603 139.78536832 16.81810287 138.18714905 16.82510376 C133.84209329 16.84250718 129.49704853 16.85306323 125.15196657 16.86130929 C122.43808457 16.86645973 119.72420598 16.87253537 117.01032639 16.87882042 C108.52128112 16.89786872 100.03224454 16.91210191 91.54318202 16.92043239 C81.73971247 16.9302114 71.93646832 16.95654969 62.13307822 16.99693328 C54.55762876 17.02707015 46.98224403 17.04189885 39.40673578 17.0452134 C34.88099632 17.0475662 30.35549777 17.05655668 25.82982254 17.08167458 C21.57310602 17.10491866 17.31678965 17.10920346 13.06002617 17.09891319 C11.49792972 17.09841686 9.93581381 17.10476591 8.37377739 17.11846924 C6.24041313 17.13613744 4.10849298 17.12910903 1.97512817 17.11593628 C0.18485923 17.11951881 0.18485923 17.11951881 -1.64157677 17.12317371 C-5.4603418 16.52357479 -7.10658216 15.36711862 -9.79406738 12.62818909 C-10.85656738 9.19068909 -10.85656738 9.19068909 -10.79406738 5.62818909 C-7.85025029 0.62626593 -5.6776255 0.00272269 0 0 Z " fill="#000000" transform="translate(93.7940673828125,311.37181091308594)"/>
<path d="M0 0 C1.01769769 -0.00807831 1.01769769 -0.00807831 2.05595493 -0.01631981 C4.32842226 -0.03062268 6.60030899 -0.02349029 8.87280273 -0.01637268 C10.50235462 -0.02207501 12.13190252 -0.02903873 13.76144409 -0.03717041 C18.18701198 -0.05513099 22.61238191 -0.05392816 27.03797531 -0.04822803 C30.73101134 -0.04514074 34.42400909 -0.0512234 38.11703968 -0.05726677 C46.82765185 -0.07131954 55.53816597 -0.06974411 64.2487793 -0.05836487 C73.23978894 -0.04687901 82.23050047 -0.06096542 91.22147083 -0.08776134 C98.93791972 -0.10989905 106.65427489 -0.1165602 114.37075329 -0.11068493 C118.98081284 -0.10730998 123.59068121 -0.10976615 128.20071411 -0.12693596 C132.53462943 -0.14237268 136.86810204 -0.13848627 141.20199966 -0.11963081 C142.79352863 -0.115936 144.38509017 -0.11907935 145.9765892 -0.1295166 C148.14750465 -0.14266809 150.31694175 -0.13123353 152.48779297 -0.11352539 C153.70305161 -0.11331611 154.91831024 -0.11310682 156.1703949 -0.1128912 C159.8607996 0.48815307 161.04390046 1.40935997 163.24389648 4.38768005 C163.80639648 7.82518005 163.80639648 7.82518005 163.24389648 11.38768005 C160.68424429 14.64374085 159.19167474 16.20178853 155.07858181 17.00850582 C153.87899365 17.00649449 152.6794055 17.00448317 151.44346619 17.00241089 C150.77231374 17.00809414 150.10116129 17.0137774 149.40967089 17.01963288 C147.16749671 17.03252121 144.92713337 17.00976267 142.68505859 16.98704529 C141.07506431 16.98890966 139.46507129 16.99294698 137.85508728 16.99899292 C133.48723781 17.00896823 129.1200372 16.9877971 124.7522819 16.96051288 C120.18175555 16.93668312 115.61124208 16.93962783 111.04066467 16.93920898 C103.3663535 16.93458101 95.69229043 16.9109389 88.01806641 16.8747406 C79.14355239 16.83299231 70.26926175 16.81542486 61.39465517 16.81212085 C51.94817339 16.80852206 42.50177206 16.78964903 33.05532384 16.76500058 C30.33225614 16.75877041 27.60919457 16.75513508 24.88612175 16.75196648 C20.60890467 16.74606776 16.33184735 16.72975987 12.05469704 16.70536232 C10.48414215 16.69791911 8.91356715 16.69385018 7.34299469 16.69338226 C5.20094585 16.69212532 3.0593188 16.67858646 0.91734314 16.66183472 C-0.28186799 16.65718421 -1.48107912 16.6525337 -2.71662998 16.64774227 C-5.65641372 16.39620967 -7.31067627 15.98620041 -9.75610352 14.38768005 C-11.83769372 11.7113498 -11.75197942 10.27014338 -11.63110352 6.82518005 C-10.75610352 3.38768005 -10.75610352 3.38768005 -9.12367249 1.69706631 C-5.9513151 -0.05740894 -3.62101488 0.00724018 0 0 Z " fill="#000000" transform="translate(94.756103515625,272.61231994628906)"/>
<path d="M0 0 C0.66550891 -0.00382555 1.33101781 -0.00765109 2.01669365 -0.01159257 C4.24526416 -0.02190606 6.47357624 -0.01793364 8.7021637 -0.01396179 C10.30053445 -0.01830918 11.89890311 -0.02349242 13.49726868 -0.02944946 C17.83816164 -0.04284768 22.17896758 -0.04341723 26.5198772 -0.04088616 C30.14322234 -0.03981703 33.76654984 -0.04469832 37.38989121 -0.04949158 C45.93751758 -0.06058957 54.48510001 -0.06102251 63.0327301 -0.05497742 C71.85212237 -0.04893607 80.67135516 -0.06125205 89.49072021 -0.08254749 C97.06195196 -0.10015726 104.63313291 -0.10616584 112.20438439 -0.10290974 C116.72669787 -0.10109578 121.24889759 -0.10374433 125.77119255 -0.11762428 C130.02378494 -0.13018792 134.27612853 -0.12827249 138.52871704 -0.11521339 C140.08918911 -0.11284488 141.64967861 -0.11559216 143.21013069 -0.12383652 C145.34106016 -0.13428283 147.47115149 -0.12622132 149.60205078 -0.11352539 C151.3903715 -0.113777 151.3903715 -0.113777 153.21481991 -0.1140337 C156.69193855 0.29965083 158.57823772 1.17524887 161.36451721 3.26069641 C162.91038597 6.35243393 162.65811243 8.85499193 162.36451721 12.26069641 C160.18329282 15.25849297 158.98206763 16.16011797 155.29101562 16.76126766 C153.46812767 16.76158159 153.46812767 16.76158159 151.6084137 16.76190186 C150.92994857 16.76743625 150.25148344 16.77297065 149.55245876 16.77867275 C147.27980315 16.7922825 145.0082452 16.77730962 142.73561096 16.7624054 C141.1060591 16.76618848 139.47651044 16.77168844 137.8469696 16.77877808 C133.42132271 16.7927514 128.99606377 16.78154986 124.57043839 16.76506686 C119.94116656 16.75122681 115.31191749 16.75767525 110.68263245 16.76119995 C102.90823609 16.7639029 95.13399404 16.75041919 87.3596344 16.72724915 C78.36865983 16.70063886 69.37794331 16.69889198 60.38694286 16.71063751 C51.74142337 16.72141306 43.0959973 16.71522997 34.45048523 16.70108223 C30.76953424 16.69532049 27.08865158 16.69540658 23.40769958 16.70014763 C19.07382549 16.70491653 14.7402343 16.69481944 10.40641403 16.67319298 C8.81489389 16.66762374 7.22334657 16.66716108 5.63182449 16.67214584 C3.46110827 16.67809253 1.29125881 16.66560661 -0.87937927 16.64837646 C-2.09463791 16.64594657 -3.30989655 16.64351667 -4.5619812 16.64101315 C-7.91376726 16.22626134 -9.30523036 15.67400314 -11.63548279 13.26069641 C-12.50829427 9.83179415 -12.96471107 7.36810064 -11.94798279 3.94819641 C-8.79091165 -0.11089505 -4.85409833 0.0083609 0 0 Z " fill="#000000" transform="translate(95.63548278808594,388.7393035888672)"/>
<path d="M0 0 C0.97882902 -0.00445668 0.97882902 -0.00445668 1.97743237 -0.0090034 C4.16214284 -0.01766904 6.34679837 -0.01919682 8.53152466 -0.02069092 C10.09871538 -0.02532054 11.66590497 -0.0303454 13.23309326 -0.03573608 C17.48932144 -0.04884671 21.74553386 -0.05530223 26.00177908 -0.05974674 C28.66123383 -0.06267915 31.32068428 -0.06678424 33.98013687 -0.07125092 C42.30206147 -0.08492126 50.62397624 -0.09459063 58.94591129 -0.09845281 C68.55065921 -0.10293496 78.15526492 -0.12049207 87.75996959 -0.1494534 C95.18598786 -0.17106784 102.6119661 -0.18115693 110.03801548 -0.18249393 C114.47262295 -0.18354197 118.90709665 -0.18944976 123.34167099 -0.20731354 C127.51299662 -0.22379052 131.68408785 -0.2259516 135.85543442 -0.21717453 C137.38485339 -0.216404 138.91428495 -0.22074902 140.44367218 -0.23063278 C142.5348295 -0.24335272 144.62515663 -0.23747617 146.71630859 -0.22705078 C147.88547758 -0.22851734 149.05464657 -0.2299839 150.25924492 -0.2314949 C153.9241607 0.19106004 156.34356136 1.2336398 159.48513794 3.14044189 C161.0310067 6.23217941 160.77873315 8.73473742 160.48513794 12.14044189 C158.30036842 15.14642559 157.09494682 16.04052358 153.39601898 16.64659977 C152.173386 16.64940669 150.95075302 16.65221361 149.69107056 16.65510559 C149.00852188 16.66205112 148.3259732 16.66899665 147.62274122 16.67615265 C145.33630641 16.69444496 143.0509066 16.68415307 140.76443481 16.67388916 C139.1250277 16.68094651 137.4856271 16.68969076 135.84623718 16.69999695 C131.39376158 16.72252024 126.94164094 16.71954461 122.48913002 16.71067548 C118.77371599 16.70556995 115.05836892 16.71285451 111.34296179 16.72014755 C102.57958481 16.73715554 93.81638192 16.73357125 85.05300903 16.71685791 C76.00740195 16.69992959 66.96227719 16.71577874 57.91672277 16.74808079 C50.15355018 16.77475476 42.39052792 16.78205882 34.62731409 16.77356571 C29.98927258 16.76863079 25.35152143 16.77088265 20.71351624 16.79135323 C16.35324521 16.80967643 11.99366959 16.80379338 7.6334362 16.77915382 C6.03223456 16.77413544 4.43098024 16.77766234 2.82982063 16.79030228 C0.64547762 16.80618344 -1.53656138 16.79133383 -3.72079468 16.76863098 C-4.94342766 16.76804467 -6.16606064 16.76745836 -7.4257431 16.76685429 C-10.51486206 16.14044189 -10.51486206 16.14044189 -12.94339752 13.82774258 C-14.51486206 11.14044189 -14.51486206 11.14044189 -14.45236206 7.51544189 C-13.17395297 2.91316917 -13.17395297 2.91316917 -10.51486206 1.14044189 C-7.01112179 -0.0180602 -3.67074581 0.00934534 0 0 Z " fill="#000000" transform="translate(97.51486206054688,349.85955810546875)"/>
<path d="M0 0 C7.7939506 5.54170632 13.56713884 12.25792294 15.8046875 21.7109375 C16.91053547 32.18264074 16.14072546 40.84152658 9.81640625 49.40234375 C2.8121968 57.71303787 -4.56478677 61.64224201 -15.27734375 62.96875 C-24.44314326 63.46419862 -32.68716796 60.43550398 -39.6328125 54.5234375 C-46.58839921 47.74677263 -50.22699089 40.83337637 -50.48754883 31.12670898 C-50.55825655 23.78758798 -50.21576113 18.0854646 -46.1953125 11.7109375 C-45.8446875 11.08960938 -45.4940625 10.46828125 -45.1328125 9.828125 C-40.52826265 2.44165961 -32.99730134 -1.67374701 -24.73046875 -3.8203125 C-16.12874994 -5.41076898 -7.62539577 -4.47754556 0 0 Z M-30.5078125 18.2734375 C-34.2659385 22.86012671 -34.53821313 26.05387734 -34.4765625 31.94921875 C-33.96042893 37.01736364 -31.36638755 39.62994515 -27.7578125 42.9609375 C-22.76870125 46.36813543 -19.34413508 47.0982693 -13.40625 46.25 C-7.85486998 44.89648332 -4.35640584 41.27696121 -1.1953125 36.7109375 C0.5144243 31.5817271 0.45086345 26.64946534 -1.2578125 21.5234375 C-4.01372862 17.52291411 -7.46642034 13.59584039 -12.20703125 12.05859375 C-20.06815534 10.68405535 -25.28259024 12.30175492 -30.5078125 18.2734375 Z " fill="#000000" transform="translate(228.1953125,150.2890625)"/>
<path d="M0 0 C6.37003479 1.85310103 9.21583713 7.36093132 12.75 12.625 C13.66224201 13.97170547 14.57501078 15.31805426 15.48828125 16.6640625 C15.95186035 17.34887695 16.41543945 18.03369141 16.89306641 18.73925781 C19.70314966 22.85265821 22.57188175 26.92517808 25.4375 31 C25.44160889 30.23856689 25.44571777 29.47713379 25.44995117 28.69262695 C25.4829114 25.23180334 25.55356054 21.77273429 25.625 18.3125 C25.63080078 17.11431641 25.63660156 15.91613281 25.64257812 14.68164062 C25.89127594 4.76136126 25.89127594 4.76136126 28.796875 1.69921875 C32.03191027 -0.38249773 33.65883527 -0.64317698 37.4375 0 C40.5734157 1.77984405 41.27852736 2.52308207 42.4375 6 C42.55013744 7.76760154 42.60652989 9.53903234 42.63037109 11.31005859 C42.64643402 12.3948349 42.66249695 13.47961121 42.67904663 14.59725952 C42.72350816 19.5482315 42.76454309 24.49907052 42.78759766 29.45019531 C42.80417707 32.06324151 42.83149268 34.676242 42.86962891 37.2890625 C42.92431002 41.05492701 42.94625755 44.81972983 42.9609375 48.5859375 C42.98360687 49.75377777 43.00627625 50.92161804 43.02963257 52.12484741 C43.00853608 60.20122427 43.00853608 60.20122427 40.12353516 64.23681641 C36.55299816 66.58061009 34.62978771 66.7486228 30.4375 66 C25.95504609 62.14508964 22.76609923 57.45738264 19.4375 52.625 C18.41682162 51.15874629 17.39598991 49.6925993 16.375 48.2265625 C15.64216797 47.16937012 15.64216797 47.16937012 14.89453125 46.09082031 C12.76918424 43.04097584 10.60492531 40.02005218 8.4375 37 C8.41768066 37.70608398 8.39786133 38.41216797 8.37744141 39.13964844 C8.28209585 42.34346994 8.17245487 45.54664801 8.0625 48.75 C8.01609375 50.41675781 8.01609375 50.41675781 7.96875 52.1171875 C7.93007812 53.18710938 7.89140625 54.25703125 7.8515625 55.359375 C7.8201416 56.34389648 7.7887207 57.32841797 7.75634766 58.34277344 C7.43272975 61.03975453 6.86739406 62.70932394 5.4375 65 C2.76116974 67.0815902 1.31996332 66.99587591 -2.125 66.875 C-5.5625 66 -5.5625 66 -7.25109863 64.30249023 C-8.87856283 61.44507334 -8.95505938 59.5657751 -8.98242188 56.28515625 C-8.99833374 55.13716553 -9.01424561 53.9891748 -9.03063965 52.80639648 C-9.03084106 51.57091064 -9.03104248 50.3354248 -9.03125 49.0625 C-9.03886353 47.79027588 -9.04647705 46.51805176 -9.05432129 45.20727539 C-9.0651282 42.51709769 -9.06934125 39.82779867 -9.06347656 37.13769531 C-9.05757516 33.69392355 -9.08819288 30.25155911 -9.12859344 26.80805969 C-9.160683 23.51789918 -9.15635418 20.22779293 -9.15625 16.9375 C-9.17264526 15.70201416 -9.18904053 14.46652832 -9.20593262 13.19360352 C-9.1966272 12.04561279 -9.18732178 10.89762207 -9.17773438 9.71484375 C-9.17978882 8.70542725 -9.18184326 7.69601074 -9.18395996 6.65600586 C-8.5625 4 -8.5625 4 -6.2467041 1.64282227 C-3.5625 0 -3.5625 0 0 0 Z " fill="#000000" transform="translate(79.5625,146)"/>
<path d="M0 0 C2.18844715 2.33937454 2.97968882 3.93906647 4 7 C5.99107248 8.01765927 7.99218823 9.01577854 10 10 C12.375 11.75 12.375 11.75 14 14 C14.56921855 17.98452984 14.67149179 20.05493748 12.3125 23.375 C9.63644946 25.25546795 8.27749873 25.9237791 5 26 C3.88625 25.505 2.7725 25.01 1.625 24.5 C-2.50580244 22.79070244 -4.70405343 23.03560383 -9 24 C-9.33 25.65 -9.66 27.3 -10 29 C-7.31005837 30.0970153 -4.61553174 31.13713824 -1.87890625 32.11328125 C5.95053655 34.94442252 11.90407596 37.17137193 16.375 44.5 C19.19317638 50.79035993 19.25709903 58.10704816 17.15234375 64.625 C14.40053336 70.14727713 10.36669056 73.97901525 5 77 C4.34 77 3.68 77 3 77 C2.9175 77.9075 2.835 78.815 2.75 79.75 C1.88498223 83.49841035 1.13157632 84.79943285 -2 87 C-5.84547708 87.65454929 -7.50107319 87.29284835 -10.875 85.3125 C-13 83 -13 83 -13.3125 80.25 C-13.209375 79.5075 -13.10625 78.765 -13 78 C-13.825 77.938125 -14.65 77.87625 -15.5 77.8125 C-19.95445048 76.77843114 -23.38062273 74.77284034 -27 72 C-28.54586876 68.90826248 -28.29359521 66.40570448 -28 63 C-26.4375 60.5625 -26.4375 60.5625 -24 59 C-19.81573698 58.44736149 -17.46686137 58.78386048 -13.625 60.5625 C-9.23622846 62.30287492 -5.52484714 62.45606079 -1 61 C1.29013653 57.5647952 1.17842973 56.014669 1 52 C-0.82724609 51.23816406 -0.82724609 51.23816406 -2.69140625 50.4609375 C-4.31538734 49.76628663 -5.93906952 49.07093668 -7.5625 48.375 C-8.36236328 48.04371094 -9.16222656 47.71242187 -9.98632812 47.37109375 C-16.67889961 44.47553221 -23.09085211 41.02319768 -26 34 C-26.87089218 26.55616364 -27.09477925 19.70798054 -22.43359375 13.5546875 C-20.43291719 11.38501647 -18.49969773 9.57875646 -16 8 C-15.01 8 -14.02 8 -13 8 C-12.87625 6.88625 -12.7525 5.7725 -12.625 4.625 C-12 1 -12 1 -10 -1 C-6.25929352 -2.60315992 -3.61324902 -1.61443041 0 0 Z " fill="#000000" transform="translate(338,36)"/>
<path d="M0 0 C3.00524417 2.16806901 4.07176869 3.91381857 5.203125 7.43359375 C5.078125 10.93359375 5.078125 10.93359375 3.640625 13.87109375 C0.72487498 16.21791693 -1.1296826 16.52868663 -4.84375 16.30859375 C-8.07747897 15.72506371 -10.92098127 14.24307465 -13.921875 12.93359375 C-19.8247632 12.18231707 -24.12011361 13.58279939 -28.921875 16.93359375 C-32.98976813 21.41870668 -34.18129235 25.98774816 -33.921875 31.93359375 C-32.35368321 37.16089971 -30.15337542 40.48934922 -25.921875 43.93359375 C-21.2739562 46.20590961 -16.85733529 46.4699238 -11.921875 44.93359375 C-10.07609759 43.76840166 -10.07609759 43.76840166 -8.359375 42.37109375 C-5.65179726 40.23841265 -4.87723411 39.92754075 -1.234375 39.43359375 C2.27332361 39.96305769 3.76292075 40.26220423 6.078125 42.93359375 C7.1770562 46.30364942 7.40185695 48.12426388 6.078125 51.43359375 C0.2461592 58.723551 -5.90186543 62.07106698 -15.2109375 63.21484375 C-24.85253234 63.62367463 -33.62461056 60.14046235 -40.921875 53.93359375 C-47.9769428 46.35478729 -51.30419606 37.72505357 -51.1328125 27.390625 C-50.36245405 18.41737569 -46.54996498 10.49063849 -40.140625 4.1796875 C-28.66953621 -5.19933796 -13.1143979 -7.27689152 0 0 Z " fill="#000000" transform="translate(324.921875,150.06640625)"/>
<path d="M0 0 C1.04450317 0.00326294 1.04450317 0.00326294 2.11010742 0.0065918 C4.23278268 0.00974873 6.35405999 -0.01369198 8.4765625 -0.0390625 C9.82486803 -0.04133583 11.17317731 -0.04203883 12.52148438 -0.04101562 C14.36407837 -0.04548706 14.36407837 -0.04548706 16.24389648 -0.05004883 C19.30664062 0.32226562 19.30664062 0.32226562 21.17602539 1.6652832 C22.91748585 4.21749485 23.18392957 6.25448931 23.30664062 9.32226562 C22.1688419 11.64958119 21.13823348 13.49067277 19.30664062 15.32226562 C17.96396649 15.40858437 16.61689741 15.42933036 15.27148438 15.41992188 C14.46259766 15.41669922 13.65371094 15.41347656 12.8203125 15.41015625 C11.97017578 15.40177734 11.12003906 15.39339844 10.24414062 15.38476562 C9.39013672 15.38025391 8.53613281 15.37574219 7.65625 15.37109375 C5.53968399 15.35926936 3.42315377 15.34133331 1.30664062 15.32226562 C1.30664062 18.62226563 1.30664062 21.92226562 1.30664062 25.32226562 C2.41523438 25.27585938 3.52382813 25.22945312 4.66601562 25.18164062 C6.1295303 25.14411461 7.59307418 25.10771533 9.05664062 25.07226562 C9.78625 25.03875 10.51585937 25.00523437 11.26757812 24.97070312 C14.81611338 24.9061843 16.876537 25.01118439 19.79101562 27.11914062 C22.00674518 30.33994338 21.85168735 32.50693853 21.30664062 36.32226562 C19.43955558 38.68724002 17.98602632 39.98257278 15.30664062 41.32226562 C12.93261562 41.39342944 10.55663386 41.40635647 8.18164062 41.38476562 C6.9003125 41.37574219 5.61898438 41.36671875 4.29882812 41.35742188 C3.31140625 41.34582031 2.32398438 41.33421875 1.30664062 41.32226562 C1.30664062 44.29226562 1.30664062 47.26226562 1.30664062 50.32226562 C2.48742187 50.28746094 3.66820312 50.25265625 4.88476562 50.21679688 C6.44204304 50.18865331 7.99933587 50.16135375 9.55664062 50.13476562 C10.72259766 50.09706055 10.72259766 50.09706055 11.91210938 50.05859375 C15.39708736 50.01391455 17.68011461 49.98687258 20.79492188 51.65429688 C23.04671829 54.13883711 23.24034325 56.00739682 23.30664062 59.32226562 C21.70252214 62.85132629 20.56504701 64.1499947 17.30664062 66.32226562 C13.03010068 66.79147847 8.73112935 66.69261753 4.43164062 66.69726562 C3.24699219 66.72175781 2.06234375 66.74625 0.84179688 66.77148438 C-0.87330078 66.77728516 -0.87330078 66.77728516 -2.62304688 66.78320312 C-4.18901611 66.79552979 -4.18901611 66.79552979 -5.78662109 66.80810547 C-9.43307673 66.19862733 -11.08674373 64.89973102 -13.69335938 62.32226562 C-14.68338882 59.35217729 -14.82552428 57.38731545 -14.83862305 54.28759766 C-14.8450029 53.26288361 -14.85138275 52.23816956 -14.85795593 51.18240356 C-14.85906876 50.07613617 -14.86018158 48.96986877 -14.86132812 47.83007812 C-14.86465652 46.691987 -14.86798492 45.55389587 -14.87141418 44.38131714 C-14.87648009 41.97215174 -14.87882261 39.56297931 -14.87866211 37.15380859 C-14.88084652 33.46895772 -14.89900034 29.78440718 -14.91796875 26.09960938 C-14.92090314 23.75976665 -14.92288763 21.4199225 -14.92382812 19.08007812 C-14.93101364 17.97785919 -14.93819916 16.87564026 -14.94560242 15.74002075 C-14.94252579 14.70900238 -14.93944916 13.67798401 -14.9362793 12.61572266 C-14.93770432 11.71209991 -14.93912933 10.80847717 -14.94059753 9.87747192 C-13.96921292 -0.16178778 -8.62851072 0.03571515 0 0 Z " fill="#000000" transform="translate(354.693359375,146.677734375)"/>
<path d="M0 0 C4.03826202 0.84130459 5.32375486 2.52295865 8 5.625 C9.4855957 8.76293945 9.4855957 8.76293945 10.67578125 12.23828125 C10.89066696 12.85269577 11.10555267 13.46711029 11.32695007 14.10014343 C12.0024726 16.04152334 12.65770843 17.98904289 13.3125 19.9375 C13.77015461 21.26413136 14.22912694 22.59030891 14.68945312 23.91601562 C15.8059985 27.14812064 16.90894097 30.38422118 18 33.625 C19.99832869 30.62750696 20.93637874 28.15541388 22.05859375 24.75 C22.44466797 23.60015625 22.83074219 22.4503125 23.22851562 21.265625 C24.03411807 18.83970747 24.83620647 16.41262014 25.63476562 13.984375 C26.02212891 12.83453125 26.40949219 11.6846875 26.80859375 10.5 C27.33151001 8.91832031 27.33151001 8.91832031 27.86499023 7.3046875 C28.97531096 4.6832893 29.75437249 3.33038116 32 1.625 C35.375 0.625 35.375 0.625 39 0.625 C41.9375 2.625 41.9375 2.625 44 5.625 C44.73662505 12.10329306 42.68109578 17.54964637 40.60546875 23.6328125 C40.25744705 24.67645966 39.90942535 25.72010681 39.55085754 26.79537964 C38.8151945 28.99401048 38.07441976 31.19093675 37.32885742 33.38623047 C36.19032753 36.74166679 35.06953167 40.10263791 33.95117188 43.46484375 C33.23281185 45.60451645 32.51344471 47.74385135 31.79296875 49.8828125 C31.45847214 50.8849881 31.12397552 51.8871637 30.77934265 52.91970825 C26.97247863 64.07519536 26.97247863 64.07519536 23.25 67 C19.85887913 67.94197802 17.39008797 67.47252199 14 66.625 C9.86730624 63.45519154 8.53371559 59.41410461 6.94140625 54.6328125 C6.67037582 53.85042206 6.3993454 53.06803162 6.12010193 52.26193237 C5.25659368 49.76157022 4.40921198 47.25609363 3.5625 44.75 C2.99783171 43.10379344 2.43208612 41.45795599 1.86523438 39.8125 C1.02995745 37.38727968 0.19688884 34.96146546 -0.62753296 32.53253174 C-1.88092657 28.8428623 -3.15565103 25.16736153 -4.52392578 21.51855469 C-4.98138184 20.29297852 -5.43883789 19.06740234 -5.91015625 17.8046875 C-6.31500244 16.74749512 -6.71984863 15.69030273 -7.13696289 14.60107422 C-8.06306361 11.40753314 -8.31182825 8.93170879 -8 5.625 C-5.54405875 2.30225596 -4.0743356 0.84881992 0 0 Z " fill="#000000" transform="translate(135,145.375)"/>
<path d="M0 0 C1.68859863 1.19496155 1.68859863 1.19496155 3 3 C3.39440918 5.57371521 3.39440918 5.57371521 3.41992188 8.69311523 C3.43583374 9.86120224 3.45174561 11.02928925 3.46813965 12.23277283 C3.46844177 14.12655418 3.46844177 14.12655418 3.46875 16.05859375 C3.48017029 18.00234642 3.48017029 18.00234642 3.49182129 19.98536682 C3.50526732 22.72836968 3.50683461 25.47108474 3.50097656 28.21411133 C3.49508093 31.72628316 3.52566213 35.23707234 3.56609344 38.74897671 C3.59818838 42.10222682 3.59385417 45.45519042 3.59375 48.80859375 C3.6183429 50.69933876 3.6183429 50.69933876 3.64343262 52.62828064 C3.6341272 53.79951981 3.62482178 54.97075897 3.61523438 56.17749023 C3.61728882 57.20768784 3.61934326 58.23788544 3.62145996 59.29930115 C3 62 3 62 0.68811035 64.36781311 C-2 66 -2 66 -5.625 65.9375 C-8.84839166 65.04211343 -10.09276958 64.64893115 -12 62 C-13.2751927 59.4496146 -13.13393321 57.64284318 -13.14526367 54.78759766 C-13.15164352 53.69951813 -13.15802338 52.6114386 -13.16459656 51.49038696 C-13.16570938 50.31019989 -13.1668222 49.13001282 -13.16796875 47.9140625 C-13.17129715 46.70559662 -13.17462555 45.49713074 -13.17805481 44.25204468 C-13.18312552 41.69147117 -13.18546309 39.13089103 -13.18530273 36.5703125 C-13.18748701 32.64832681 -13.20563545 28.72662329 -13.22460938 24.8046875 C-13.22754367 22.32031347 -13.22952822 19.83593809 -13.23046875 17.3515625 C-13.23765427 16.17542389 -13.24483978 14.99928528 -13.25224304 13.7875061 C-13.24916641 12.69312225 -13.24608978 11.5987384 -13.24291992 10.47119141 C-13.24434494 9.50903717 -13.24576996 8.54688293 -13.24723816 7.55557251 C-12.98790934 4.87502509 -12.42187855 3.2692985 -11 1 C-7.4367155 -1.7714435 -4.20758349 -0.99451973 0 0 Z " fill="#000000" transform="translate(265,147)"/>
<path d="M0 0 C1.68859863 1.19496155 1.68859863 1.19496155 3 3 C3.39440918 5.57371521 3.39440918 5.57371521 3.41992188 8.69311523 C3.43583374 9.86120224 3.45174561 11.02928925 3.46813965 12.23277283 C3.46844177 14.12655418 3.46844177 14.12655418 3.46875 16.05859375 C3.48017029 18.00234642 3.48017029 18.00234642 3.49182129 19.98536682 C3.50526732 22.72836968 3.50683461 25.47108474 3.50097656 28.21411133 C3.49508093 31.72628316 3.52566213 35.23707234 3.56609344 38.74897671 C3.59818838 42.10222682 3.59385417 45.45519042 3.59375 48.80859375 C3.6183429 50.69933876 3.6183429 50.69933876 3.64343262 52.62828064 C3.6341272 53.79951981 3.62482178 54.97075897 3.61523438 56.17749023 C3.61728882 57.20768784 3.61934326 58.23788544 3.62145996 59.29930115 C3 62 3 62 0.6842041 64.36000061 C-2 66 -2 66 -5.5625 66.0625 C-9.88730024 64.72574356 -10.76938156 63.94396157 -13 60 C-13.5790486 55.87322939 -13.51227677 51.78189543 -13.4609375 47.62109375 C-13.46002106 46.41687271 -13.45910461 45.21265167 -13.4581604 43.97193909 C-13.45212465 41.42925061 -13.43637965 38.88656924 -13.41162109 36.34399414 C-13.37510279 32.44846454 -13.3706019 28.55388607 -13.37109375 24.65820312 C-13.36126292 22.18749177 -13.34960607 19.71678686 -13.3359375 17.24609375 C-13.33371185 16.0793663 -13.33148621 14.91263885 -13.32919312 13.71055603 C-13.31643341 12.62585526 -13.30367371 11.54115448 -13.29052734 10.42358398 C-13.28290375 9.47047836 -13.27528015 8.51737274 -13.26742554 7.53538513 C-12.98709875 4.87768694 -12.40696495 3.25549169 -11 1 C-7.4367155 -1.7714435 -4.20758349 -0.99451973 0 0 Z " fill="#000000" transform="translate(56,147)"/>
<path d="M0 0 C1.50692665 -0.01441132 1.50692665 -0.01441132 3.04429626 -0.02911377 C4.12352859 -0.03336365 5.20276093 -0.03761353 6.31469727 -0.04199219 C7.98641747 -0.0505423 7.98641747 -0.0505423 9.69190979 -0.05926514 C12.04801486 -0.06870642 14.40413308 -0.07524565 16.76025391 -0.07910156 C20.36392168 -0.08882085 23.96702235 -0.11985872 27.57055664 -0.15136719 C29.8602668 -0.15789614 32.14998103 -0.16314703 34.43969727 -0.16699219 C36.05550941 -0.18551239 36.05550941 -0.18551239 37.70396423 -0.20440674 C47.10889499 -0.17639923 47.10889499 -0.17639923 50.94360352 3.16113281 C52.48947227 6.25287033 52.23719873 8.75542834 51.94360352 12.16113281 C49.90009722 14.83995616 48.70173478 16.0118811 45.36352539 16.66906738 C44.38963867 16.67224976 43.41575195 16.67543213 42.41235352 16.67871094 C41.3044043 16.69131958 40.19645508 16.70392822 39.05493164 16.71691895 C37.86319336 16.70882202 36.67145508 16.7007251 35.44360352 16.69238281 C33.60185547 16.69812317 33.60185547 16.69812317 31.72290039 16.70397949 C29.12718893 16.70670123 26.53145016 16.69932192 23.93579102 16.68261719 C19.95860752 16.66121356 15.9832307 16.68241244 12.00610352 16.70800781 C9.48526619 16.70536459 6.96442999 16.70023972 4.44360352 16.69238281 C3.25186523 16.70047974 2.06012695 16.70857666 0.83227539 16.71691895 C-0.82964844 16.69800598 -0.82964844 16.69800598 -2.52514648 16.67871094 C-3.4990332 16.67552856 -4.47291992 16.67234619 -5.47631836 16.66906738 C-8.81142371 16.01249219 -10.0050331 14.82823282 -12.05639648 12.16113281 C-12.52157069 8.43973917 -12.56494607 6.12737702 -10.80639648 2.78613281 C-7.67771892 -0.11906778 -4.11880568 0.03188407 0 0 Z " fill="#000000" transform="translate(41.056396484375,230.8388671875)"/>
<path d="M0 0 C1.27939453 -0.00257813 2.55878906 -0.00515625 3.87695312 -0.0078125 C14.59681992 0.10473203 14.59681992 0.10473203 17.9375 3.5 C18.81031149 6.92890226 19.26672829 9.39259577 18.25 12.8125 C16.61663522 14.91254043 15.41274605 15.51258093 12.9375 16.5 C8.47053525 16.97968176 3.99006831 16.91635368 -0.5 16.9375 C-1.72783203 16.97037109 -2.95566406 17.00324219 -4.22070312 17.03710938 C-14.28070418 17.0973489 -14.28070418 17.0973489 -17.37109375 14.16015625 C-19.47016287 10.85884893 -19.86198084 9.33750804 -19.0625 5.5 C-14.64763915 -1.56377735 -7.58304167 -0.16859719 0 0 Z " fill="#000000" transform="translate(319.0625,272.5)"/>
<path d="M0 0 C1.28068359 -0.00386719 2.56136719 -0.00773437 3.88085938 -0.01171875 C4.88064819 -0.00229248 4.88064819 -0.00229248 5.90063477 0.00732422 C7.93118819 0.02335682 9.95974347 0.0074856 11.99023438 -0.01171875 C13.91319336 -0.00591797 13.91319336 -0.00591797 15.875 0 C17.63734985 0.00507568 17.63734985 0.00507568 19.43530273 0.01025391 C22.78363936 0.43382422 24.16250884 1.00328263 26.50390625 3.3984375 C27.50390625 6.7734375 27.50390625 6.7734375 27.50390625 10.3984375 C25.73749453 13.20033196 24.47340803 14.91368661 21.50390625 16.3984375 C17.21712676 16.64261075 12.92185473 16.58364181 8.62890625 16.5859375 C6.83259766 16.60430664 6.83259766 16.60430664 5 16.62304688 C3.84886719 16.62498047 2.69773437 16.62691406 1.51171875 16.62890625 C0.4561377 16.63301514 -0.59944336 16.63712402 -1.68701172 16.64135742 C-4.51216493 16.39704772 -6.1259436 15.91377384 -8.49609375 14.3984375 C-10.59288778 11.70255947 -10.49120196 10.3054935 -10.30859375 6.8359375 C-8.8051433 0.47518561 -6.27072658 0.01807746 0 0 Z " fill="#000000" transform="translate(310.49609375,311.6015625)"/>
<path d="M0 0 C1.56234375 -0.01836914 1.56234375 -0.01836914 3.15625 -0.03710938 C4.16429687 -0.03904297 5.17234375 -0.04097656 6.2109375 -0.04296875 C7.1292334 -0.04707764 8.0475293 -0.05118652 8.99365234 -0.05541992 C12.80980608 0.29687855 15.64480909 1.30532818 18.5 3.875 C20.16083755 7.28894385 19.54452707 9.57507223 18.625 13.1875 C17.48999023 14.87304688 17.48999023 14.87304688 15.625 16.1875 C11.36873684 16.77717158 7.09295107 16.7025041 2.80102539 16.68847656 C0.69733651 16.68750454 -1.40269776 16.72911376 -3.50585938 16.7734375 C-4.84634658 16.77864526 -6.18684643 16.78133268 -7.52734375 16.78125 C-8.74413818 16.78833984 -9.96093262 16.79542969 -11.21459961 16.80273438 C-14.375 16.1875 -14.375 16.1875 -16.80688477 13.87695312 C-18.375 11.1875 -18.375 11.1875 -18.3125 7.5625 C-17.05753968 3.04464286 -17.05753968 3.04464286 -14.375 1.1875 C-9.6725989 -0.37996703 -4.92465157 0.00302497 0 0 Z " fill="#000000" transform="translate(318.375,349.8125)"/>
</svg>
